<?xml version="1.0" encoding="utf-8"?>
<!-- Generator: Adobe Illustrator 21.0.2, SVG Export Plug-In . SVG Version: 6.00 Build 0)  -->
<svg version="1.1" id="Layer_1" xmlns:sketch="http://www.bohemiancoding.com/sketch/ns"
	 xmlns="http://www.w3.org/2000/svg" xmlns:xlink="http://www.w3.org/1999/xlink" x="0px" y="0px" viewBox="0 0 100 100"
	 style="enable-background:new 0 0 100 100;" xml:space="preserve">
<style type="text/css">
	.st0{fill:#FFFFFF;}
	.st1{fill:#00F2E6;}
	.st2{fill:#00B9F1;}
	.st3{fill:#D63AFF;}
	.st4{fill:#FB015B;}
</style>
<title>Group</title>
<desc>Created with Sketch.</desc>
<rect id="Rectangle-path" x="0" y="0" sketch:type="MSShapeGroup" width="100" height="100">
</rect>
<g id="Shape" transform="translate(50.000000, 50.000000)" sketch:type="MSShapeGroup">
	<g>
		<path class="st0" d="M3.7-11.5l0-13.4h-7.5l0,13.4L0-6.3L3.7-11.5z"/>
		<path class="st0" d="M-3.7,11.5V25h7.5V11.5L0,6.4L-3.7,11.5z"/>
		<path class="st1" d="M3.7,11.5l7.9,10.9l6-4.4L9.8,7.1l-6-1.9C3.7,5.2,3.7,11.5,3.7,11.5z"/>
		<path class="st1" d="M-3.7-11.5l-7.9-10.9l-6,4.4l7.9,10.9l6.1,1.9V-11.5z"/>
		<path class="st2" d="M-9.8-7.1l-12.8-4.1l-2.3,7.1L-12.1,0l6-2L-9.8-7.1z"/>
		<path class="st2" d="M6,2l3.7,5.1l12.8,4.1l2.3-7.1L12.1,0L6,2z"/>
		<path class="st3" d="M12.1,0l12.8-4.2l-2.3-7.1L9.8-7.1L6-2L12.1,0z"/>
		<path class="st3" d="M-12.1,0l-12.8,4.1l2.3,7.1l12.8-4.1L-6.1,2L-12.1,0z"/>
		<path class="st4" d="M-9.8,7.1L-17.7,18l6,4.4l7.9-10.9V5.2L-9.8,7.1z"/>
		<path class="st4" d="M9.8-7.1L17.6-18l-6-4.4L3.7-11.5v6.3L9.8-7.1z"/>
	</g>
</g>
</svg>
