<?xml version="1.0" encoding="utf-8"?>
<!-- Generator: Adobe Illustrator 15.0.2, SVG Export Plug-In  -->
<!DOCTYPE svg PUBLIC "-//W3C//DTD SVG 1.1//EN" "http://www.w3.org/Graphics/SVG/1.1/DTD/svg11.dtd" [
	<!ENTITY ns_flows "http://ns.adobe.com/Flows/1.0/">
]>
<svg version="1.1"
	 xmlns="http://www.w3.org/2000/svg" xmlns:xlink="http://www.w3.org/1999/xlink" xmlns:a="http://ns.adobe.com/AdobeSVGViewerExtensions/3.0/"
	 x="0px" y="0px" width="592px" height="595px" viewBox="0.003 0 592 595" enable-background="new 0.003 0 592 595"
	 xml:space="preserve">
<defs>
</defs>
<path id="path-2_2_" fill="#B8D1DE" d="M386.987,551.556c-1.558,0-3.886-0.582-4.665,0.197c-4.442,5.377-12.058,3.458-16.924,7.494
	c-0.774,0.582-2.53,0-3.697,0c0.198-0.582,0.389-1.35,0.779-1.534c2.917-1.734,7.583-2.689,8.171-4.993
	c1.167-3.653,6.22-2.688,6.22-5.762c0-3.455,2.72-3.072,4.272-3.84c8.63-4.272,16.937-9.156,24.852-14.614
	c8.543-5.323,16.786-11.096,24.697-17.293c1.944-1.732,4.443-3.072,6.665-4.805c0.035-0.897-0.241-1.779-0.778-2.502
	c-0.471-0.453-1.193-0.534-1.756-0.197c-1.02,0.708-1.992,1.478-2.921,2.304c-4.661,4.038-9.528,8.263-14.435,12.069
	c-1.715,1.199-3.621,2.107-5.642,2.688c-1.94,0.77-4.439,0.77-5.831,2.118c-5.25,4.608-12.445,4.225-18.276,7.494
	c-4.65,1.987-9.77,2.651-14.782,1.92c1.945-3.651,6.42-3.841,9.528-6.145c2.83-2.729,6.309-4.71,10.116-5.762
	c3.839-0.952,7.096-3.456,8.975-6.899c1.554-3.072,4.087-3.292,6.029-4.992c6.219-5.377,14.781-7.309,19.646-14.418
	c0.921-0.895,1.767-1.859,2.53-2.886c0.2-0.58-0.198-0.198-0.586,0l0.774,0.769c0.324-0.338,0.589-0.727,0.778-1.151
	c0,0-0.391-0.386-1.166,0.196c-1.166,1.536-1.945,2.117-2.534,2.887c-4.661-1.152-6.029,5.957-10.892,4.037
	c-3.499,5.573-10.694,6.146-14.979,10.765c-1.367,1.535-3.886,2.117-5.254,3.455c-1.554,1.733-2.529-2.304-4.273,0
	c-2.396,2.362-5.072,4.431-7.975,6.155c-4.629,2.826-9.686,4.901-14.979,6.146c1.364-3.292,2.53-6.924,7.396-5.761
	c0.613,0.104,1.241-0.032,1.751-0.385c1.368-7.109,8.95-6.727,13.038-10.38c4.076-3.536,8.667-6.449,13.616-8.646
	c2.719-1.152,4.661-4.226,8.56-8.262c-3.329,1.35-5.25,1.534-6.22,2.501c-5.851,4.783-12.797,8.083-20.229,9.61
	c-4.115,1.334-7.76,3.801-10.508,7.11c-1.364,1.733-2.917,3.456-5.639,2.688c-0.166-0.522-0.362-1.035-0.589-1.534
	c-0.348,0.596-0.813,1.117-1.368,1.534c-4.088-0.384-7.006,3.457-11.469,4.038c0.095-1.922,1.443-3.56,3.329-4.038
	c8.595-3.634,16.75-8.213,24.31-13.647c5.321-3.84,10.391-8.016,15.169-12.498c1.941-1.535,4.084-2.688,6.029-4.037
	c0,0,5.439-11.916,5.439-12.069c1.558-0.385,3.7,0.967,3.887-1.921c1.49-0.217,2.938-0.672,4.277-1.35
	c5.447-4.995,10.701-10.187,15.759-15.568c4.796-4.963,9.342-10.158,13.61-15.569c5.171-6.015,9.729-12.517,13.616-19.409
	c5.408-8.244,10.235-16.848,14.434-25.751c4.128-8.323,7.015-17.193,8.563-26.334c0.388-5.189,3.696-9.995,4.443-15.36
	c0.388-2.502,0.977-4.993,1.161-7.681c0.202-3.291,1.368-6.584,1.756-9.798c0.198-3.776,0.198-7.561,0-11.335
	c-1.554,3.292-2.144,4.608-2.721,5.959c-0.196-2.306-3.498-5.19,1.945-5.959c1.752-0.197,3.107-2.688,2.918-5.375
	c-0.197-7.683,0.202-15.361-0.197-23.042c-0.948-4.179-1.598-8.417-1.945-12.685c0.978-4.299,0.353-8.801-1.756-12.684
	c-0.388-0.382,0-1.349,0-1.919c-0.188-8.521-1.767-16.955-4.66-24.983c-3.411-12.94-7.835-25.6-13.229-37.865
	c-4.258-11.104-9.805-21.683-16.533-31.522c-4.088-5.761-9.338-10.764-13.039-16.722c-1.463-1.595-3.167-2.957-5.052-4.038
	c-1.364-1.152-3.887-2.118-4.273-3.457c-1.555-5.958-7.976-6.583-11.105-10.763c-1.755-2.502-5.052-0.768-7.583-3.292
	c-4.546-3.577-9.374-6.791-14.438-9.611c-7.867-4.897-16.375-8.71-25.286-11.334c-8.425-3.626-17.466-5.647-26.65-5.958
	c-4.665-2.886-10.302-0.384-14.592-2.304c-4.535-1.351-9.279-1.871-14.003-1.536c-5.052-0.383-10.302,0-15.545-0.197
	c-3.083-0.191-6.167,0.406-8.951,1.733c-2.332,1.152-5.254-0.384-8.171,1.35c-3.887,2.304-8.951,1.152-13.426,2.304
	c-7.975,1.92-15.169,5.376-22.954,8.075c-3.887,1.35-7.772,3.072-11.671,4.806c-3.646,1.352-7.164,3.022-10.504,4.992
	c-3.333,2.118-7.397,2.688-10.694,4.806c-2.925,2.73-6.688,4.421-10.694,4.806c-1.367,4.389-6.028,3.84-9.14,5.76
	c-0.387-1.536,0.977-3.653-1.941-3.84c1.917-1.767,3.931-3.433,6.028-4.992c0.949-0.536,2.096-0.608,3.107-0.198
	c1.756,1.733,2.922,1.152,4.862,0c7.081-5.083,14.802-9.232,22.966-12.344c0.921-0.255,1.739-0.793,2.333-1.536
	c4.862-5.189,13.037-5.574,17.502-11.532c0.196-0.384,1.166-0.384,1.755-0.582c7.36-3.33,15.055-5.904,22.95-7.68
	c3.023-0.456,6.013-1.097,8.949-1.92c2.921-0.767,5.832-1.536,9.919-2.688c-1.944-0.768-2.921-0.768-3.499-1.152
	c-3.499-1.92-6.661,4.992-10.116,0.197c-2.333,3.654-7.583-0.197-9.915,3.654c-3.757-0.518-7.56,0.527-10.504,2.886
	c-1.756,1.152-1.945-0.198-2.923-0.384c-1.07-0.094-2.146,0.107-3.11,0.582c0.391,3.072-1.751,2.886-3.696,2.886h-11.244
	c-1.944-3.84,1.751-4.389,2.721-6.583c0.391-0.789,0.391-1.712,0-2.501c-0.665-0.656-1.646-0.881-2.535-0.582
	c-4.862,3.292-11.279,1.35-15.754,6.145c0.196-4.334,3.597-7.861,7.97-8.262c8.477-1.519,16.632-4.441,24.12-8.646
	c-4.274-2.886-7.773,1.35-11.67,1.152c-1.499-1.35-3.416-2.162-5.44-2.304c1.554-5.761,8.172-2.502,11.283-6.726
	c-1.945-0.197-3.89-0.965-5.053-0.384c-4.17,2.63-9.065,3.908-14.002,3.654c-0.934,0.028-1.827,0.369-2.534,0.965
	c-3.108,4.389-9.141,3.456-12.837,6.726c-3.499,3.072-8.749,3.292-11.47,7.494c-5.443-0.582-8.563,4.225-13.039,5.76
	c-4.353,2.156-8.516,4.662-12.448,7.494c-5.776,3.325-10.758,7.852-14.592,13.265c-6.737,7.974-13.944,15.546-21.587,22.68
	c-2.529,2.885-5.642,5.376-8.172,8.262c-0.979,0.966-0.979,2.688-1.368,4.224c-3.696,3.456-7.583,6.726-11.282,10.182
	c-1.167,1.153-0.978,3.072,1.557,3.292c-0.588,1.92-1.368,3.84-1.945,5.76c-3.106,1.733-6.218,3.456-5.831,7.68
	c-1.363,0.582-2.529,1.35-3.886,1.92l-0.589-3.457c-0.977,0.582-2.143,1.152-2.53,1.92c-0.462,1.098-0.728,2.268-0.777,3.456
	c-2.918,0.198-1.555,2.304-1.941,3.84c-4.088,1.92-6.662,4.806-5.832,8.459c-1.455,1.265-2.7,2.746-3.696,4.389
	c3.696,1.536,3.887-0.768,3.696-4.389c2.227-1.988,4.188-4.248,5.832-6.726c0.198-0.383,0-1.152,0-1.733
	c2.921-0.197,1.554-2.304,1.941-3.84c1.367-0.582,2.533-1.35,3.89-1.92l0.585,3.456c0.98-0.582,2.143-1.152,2.534-1.92
	c0.463-1.098,0.724-2.268,0.774-3.457c3.111-1.733,6.22-3.456,5.831-7.68c3.111-1.734,6.22-3.457,5.832-7.681
	c5.642-1.92,3.696-7.878,5.827-11.532c8.175-7.68,16.146-15.361,24.311-23.041l7.771-7.681c0.53,1.275,1.183,2.499,1.945,3.654
	c0.977-0.582,1.94-1.152,3.106-1.734c0.479,1.849-0.304,3.792-1.94,4.806c-1.676,1.074-2.459,3.088-1.945,4.993
	c-1.447,1.942-3.004,3.803-4.665,5.573c3.111-0.197,4.665-2.118,4.665-5.573c2.257,0.267,4.531,0.395,6.809,0.383
	c0.977,0,1.167-2.502,2.72-1.152c0.779,3.292-2.144,4.992-3.886,5.76c-2.862,1.517-4.917,4.181-5.642,7.308
	c-0.467,1.394-1.052,2.744-1.756,4.038c-1.364,2.501-2.719-0.768-3.329-0.384c-2.442,1.646-4.554,3.73-6.219,6.145
	c-1.557,2.304-1.945,4.992-5.444,5.574c-0.977,0.198-1.554,5.19-2.143,5.19c-3.697-0.384-2.144,3.292-3.886,4.389
	c-1.941,1.152-2.333,3.292-2.922,5.376c-0.977,2.886-1.554,6.726-5.642,7.681v-3.841c2.921-0.198,1.558-2.304,2.534-4.806
	c0.197-0.582-0.202-0.198-0.589,0l0.778,0.768c0.324-0.336,0.585-0.726,0.775-1.152c0,0-0.387-0.384-1.167,0.198
	c-3.495,0.965-2.142,3.291-2.53,4.806c-1.384,1.05-2.685,2.205-3.886,3.456c-0.202,0.384,0.589,1.536,0.977,2.304
	c0.403-0.497,0.861-0.95,1.364-1.35c0.392-0.383,0.98-0.383,1.559-0.582c-0.368,1.435-0.822,2.845-1.368,4.224
	c-2.917,5.19-6.029,10.183-9.338,15.756c-0.779-2.118-1.167-3.292-1.755-4.993c-2.333,3.292-4.44,6.343-6.662,9.228
	c4.088,3.072-0.978,5.19-0.978,7.878c-4.088,0-3.333,4.608-6.033,5.958c-3.194,2.502-4.998,6.354-4.862,10.38
	c-0.479,7.234-2.257,14.328-5.25,20.945c-0.202,0.582,0.977,1.734,0.977,2.689c0.198,4.224,0,8.262-0.202,15.186
	c2.333-1.734-3.106-4.39-2.72-8.461c-0.977,2.887-1.941,5.574-2.922,8.461c1.641,1.33,4.005,1.33,5.642,0
	c1.368-2.689,2.333-2.689,3.333-2.689v1.92c-0.261,1.005-0.392,2.037-0.387,3.072c3.886,0.967,3.696,1.921,1.751,5.574
	c-1.704,3.492-1.329,7.627,0.98,10.764c0.576,0.699,0.791,1.623,0.585,2.502c-1.364,11.333,2.533,22.294,1.944,33.628
	c-0.589-0.197-1.554-0.382-1.554-0.581c0.229-6.107-1.25-12.159-4.278-17.489c-0.209-1.059-0.676-2.049-1.363-2.886
	c-0.202,4.389-1.945,9.03,1.363,13.265c-1.751,2.305,3.111,3.654,0.779,6.343c-0.977,1.151,1.166,4.225,1.166,6.584
	c0.656,8.334,3.04,16.446,7.005,23.831c1.368,3.071,3.333,5.761-0.387,4.806c-2.144,0.197-1.554,3.457-0.589,6.342
	c0.419,0.975,1.289,1.688,2.333,1.92c2.529-0.197,1.944-2.688,1.363-3.652c-0.803-1.679-1.851-3.229-3.106-4.608
	c2.973,3.277,5.641,6.813,7.974,10.566c3.393,6.951,8.326,13.061,14.435,17.872c-0.59,1.735-3.888,3.457-0.389,4.808
	c2.333,0.965,3.887,1.732,4.44,4.037c-0.978,0-2.329-0.384-2.72,0c-1.555,1.537-2.721,2.118-4.084,0
	c-1.028-1.617-2.993-2.394-4.867-1.92c-0.388-1.536,0.979-3.654-2.329-3.841h0.388c-0.109-0.541-0.309-1.06-0.589-1.535
	c0-0.197-0.779,0.196-1.167,0.384c0.368,0.477,0.834,0.869,1.368,1.151c0.774,1.535-0.589,3.653,2.329,3.841
	c1.17,3.431,3.253,6.485,6.033,8.844c2.918,1.92,3.886,5.76,7.393,7.307c1.55,1.074,2.926,2.368,4.088,3.841
	c3.218,3.725,7.195,6.737,11.67,8.845c2.333,0.966,3.886,3.652,5.831,5.573c-3.111,0.769-5.052-1.921-7.586-2.688
	c-2.941-1.525-6.084-2.633-9.338-3.292c-2.863-0.763-5.516-2.142-7.773-4.038c-3.886-2.781-7.302-6.156-10.116-9.995
	c-2.922-3.456-5.255-7.308-7.975-10.972c-2.53-3.457-5.052-6.924-7.771-10.184c-0.388-0.384-2.333,0.581-2.921,0.77l5.443,5.376
	c-2.146,4.389-2.724,6.726-2.333,8.262c-1.167-0.966-3.333-1.536-3.499-2.688c-1.481-4.672-4.408-8.77-8.36-11.718
	c-2.721-2.305-2.144-6.727-6.42-8.263c0.201-0.581,0.589-0.966,0.589-1.35c-0.031-0.846-0.162-1.686-0.388-2.502
	c-0.387,0.198-1.167,0.198-1.167,0.384c0.004,1.219,0.345,2.412,0.978,3.457c-0.589,3.84,2.143,7.307,2.72,11.146
	c0.391,2.306,2.534,4.226,1.755,6.925c-0.119,0.646-0.048,1.313,0.201,1.92c0.388,3.292,6.219,1.35,6.029,6.145
	c0,2.502,2.529,5.189,4.273,7.682c0.978,1.35,2.144,3.455,4.087,0.58c0.389,0.582,0.779,1.351,1.167,1.922
	c4.076,9.112,9.666,17.489,16.533,24.785c2.72,2.305,4.444,6.146,9.141,5.957c1.167,0,2.143,3.842,3.499,5.574
	c0.637,0.914,1.612,1.539,2.72,1.734c4.146-0.759,8.433-0.008,12.058,2.117c6.892,4.453,14.265,8.133,21.978,10.972
	c-1.166-1.733-2.333-3.456-3.696-5.376c3.696,0,7.583-0.768,10.302,3.291c1.167,1.537,3.887,2.118,5.254,3.457
	c2.333,2.502,3.499-1.152,5.44-0.582c3.376,1.271,6.815,2.369,10.307,3.29c1.364,0.385,6.219,1.351,1.755-2.688
	c0.389-0.384,0.978-0.965,1.364-0.965c0.874,0.236,1.724,0.562,2.534,0.965c3.329,1.536,6.417,3.071,9.725,4.807
	c3.112-2.886,6.029,0.385,9.142,0.198c2.748-0.072,5.452,0.663,7.771,2.116c11.042,7.08,20.024,16.884,26.062,28.439
	c0.391,0.768,0.979,1.536,1.368,2.305c2.143,2.688,5.439,4.992,6.028,7.877c1.095,3.101,1.747,6.335,1.945,9.611
	c-0.158,5.404-1.486,10.713-3.886,15.569c-4.405,5.795-8.484,11.823-12.218,18.061c-0.777,1.537-4.442,1.92-5.052,3.456
	c-0.976,3.073-5.831,0.966-6.029,5.189c0,0.966-4.088,1.921-6.219,2.886c-2.534,1.151-5.831-0.965-7.974,1.92
	c-0.202,0.385-2.144-0.383-3.111-0.769c-3.771-1.559-8.089-1.125-11.469,1.152c-0.202-2.502-2.72-2.502-3.112-1.535
	c-2.328,5.189-6.804,5.375-11.278,5.189c-6.603,0.475-13.236-0.111-19.646-1.734c-6.412-1.77-12.509-4.492-18.091-8.074
	c-6.879-4.959-14.039-9.522-21.443-13.672c-4.005-2.115-7.789-4.625-11.283-7.494c-6.417-6.145-15.169-9.995-19.454-18.651
	c-1.364-2.688-5.25-4.038-7.972-6.146c-6.808-5.958-13.816-12.068-20.423-18.258c-6.605-6.188-12.604-12.684-19.21-18.839
	c-11.646-11.981-22.012-25.119-30.928-39.203c-3.835-5.709-7.155-11.742-9.915-18.027c-3.538-5.512-6.163-11.545-7.772-17.873
	c-7.775-9.611-7.974-22.297-13.228-32.917c-0.21-0.361,1.154-1.515,2.712-1.876c0.585,0.197,0.198-0.196,0-0.582l-0.779,0.77
	c0.34,0.322,0.735,0.581,1.166,0.769c0,0,0.388-0.405-0.188-1.175c-0.107-3.31-1.187-6.516-3.107-9.228
	c-2.681-4.461-3.902-9.629-3.499-14.802c0.375-6.145-2.934-11.96-2.143-18.246c0.45-6.015,0.514-12.051,0.186-18.071v-5.376
	c1.958,5.416,3.325,11.021,4.088,16.722c-0.095,12.171,1.676,24.287,5.254,35.935c1.092,4.102,1.87,8.278,2.333,12.496
	c0.083,1.168,0.281,2.325,0.585,3.456c1.281,3.033,3.049,5.839,5.242,8.308c2.535,2.117,0,6.342,3.701,7.493
	c0.775,1.921-1.755,4.806,2.917,6.726c0.779,0.385,0.202-0.197-0.198-0.965c-0.391,0.384-0.977,0.768-0.778,0.965
	c0.305,0.994,0.695,1.959,1.167,2.887c0.431-0.846,0.431-1.844,0-2.688c-1.756-2.885,0.777-5.76-2.923-6.726
	c-0.387-3.071,1.368-6.342-1.94-8.844c-1.068-8.633-3.633-17.018-7.587-24.786c0.202-10.271-5.238-19.65-4.273-30.021
	c1.569-6.488,0.957-13.306-1.744-19.42c-0.2-0.291-0.2-0.674,0-0.965c4.088-11.335,0.779-23.25,1.941-34.782
	c0.201-1.921,1.558-3.841,1.755-5.958c0.779-4.806,1.167-9.798,2.144-14.604c0.323-2.076,0.979-4.087,1.944-5.958
	c2.34-3.917,3.673-8.339,3.886-12.881c0.577-3.506,1.76-6.887,3.499-9.996c1.756-4.038,4.084-7.878,6.029-11.916
	c0.978-1.92-2.53-3.654,0-6.145c1.554-1.536,1.368-4.389,2.144-6.726c0.589-2.305,1.166-4.608,1.944-6.923
	c0.562-1.695,1.209-3.361,1.941-4.992c0.47-0.453,1.193-0.535,1.755-0.198c2.922,2.117,3.112,0.768,4.274-1.92
	c2.724-6.923,6.219-13.452,9.527-20.178c0.808-1.577,2.104-2.857,3.7-3.654c-0.589,2.502-0.391,4.389-0.977,6.145
	c-1.472,3.899-3.227,7.687-5.255,11.334c-1.987,3.633-1.604,8.086,0.978,11.334l5.254-5.19v5.19c2.72-3.292,4.274-5.19,5.828-7.11
	c1.589-2.158,3.648-3.933,6.033-5.19c-0.768,1.749-1.415,3.545-1.945,5.376c-0.589,2.118,0,4.038-1.364,6.145
	c-4.316,8.519-7.843,17.406-10.54,26.552c-2.529,7.681-5.053,15.186-7.006,23.042c0,0.197-0.589,0.582-0.589,0.582
	c2.918,3.072-1.755,5.958-0.201,8.843c0.201,0.582,0.589,1.152,1.166,2.689c7.975-15.954,9.729-33.444,17.699-49.002
	c0.392,2.118,0.589,3.84,1.167,7.11c2.143-5.19,3.886-9.03,5.444-12.881c0.589,0.198,0.977,0.198,1.554,0.384
	c-0.104,1.889-0.431,3.76-0.978,5.574c-3.577,6.034-5.132,13.031-4.443,19.991c-0.388,0.197-0.775-0.384-1.166-0.966
	c-0.389,0.384-0.978,0.966-0.978,1.35c0.083,0.816,0.349,1.603,0.779,2.304c0.688-0.837,1.154-1.828,1.364-2.886
	c3.886-1.35-0.197-6.583,3.499-7.494c-2.144-4.806,4.442-5.76,4.273-9.798c0-0.384,3.891,1.92,4.087-2.118
	c0-1.733,2.144-3.654,3.333-5.376c1.472-1.909,2.835-3.898,4.084-5.958c0.981-1.734,1.167-4.038,2.147-5.76
	c5.052-8.459,10.303-16.908,15.754-25.181c0.392-0.768,2.333-0.582,3.499-0.768c-0.198,1.152,0,2.688-0.779,3.456
	c-4.355,3.86-7.522,8.857-9.136,14.417c-0.779,3.072-4.665,4.389-6.029,8.076c-2.562,6.308-5.483,12.466-8.753,18.444
	c-0.192,0.429-0.192,0.92,0,1.35c3.887,4.992-1.166,9.03-1.554,13.649c-0.202,1.536-0.779,2.886-0.977,4.389
	c0,0.384,0.589,0.965,0.977,1.536c2.953-2.248,4.681-5.729,4.665-9.414c-0.392-2.886,1.554-5.19,1.167-8.262
	c-0.392-2.117,2.143-5.189,4.083-7.11c3.29-3.905,5.622-8.509,6.808-13.452c0.368-1.462,1.028-2.835,1.945-4.038
	c3.941-5.965,7.326-12.27,10.113-18.839c1.558-2.501,5.443-3.653,5.057-6.144c-0.779-4.608,3.697-3.457,5.25-5.574
	c4.404-5.023,8.437-10.355,12.063-15.953c0.387-0.768-0.202-2.118-0.393-3.292c-0.977,0.581-1.94,1.152-3.106,1.733
	c-0.778-4.038,3.106-5.19,4.862-7.681c1.555,2.118,2.53,1.35,4.088-0.197c6.722-7.072,13.933-13.672,21.585-19.75
	c4.82-4.148,10.269-7.521,16.146-9.996c4.795-1.696,9.365-3.954,13.615-6.726c9.338-6.145,21.009-6.924,30.339-13.265
	c1.166-0.769,3.106-0.198,9.725-0.384c-9.508,2.466-18.087,7.608-24.696,14.801c8.819-3.906,17.117-8.877,24.696-14.801
	c-3.329-0.768-1.94-2.886-0.196-3.072c7.875-1.973,15.458-4.946,22.562-8.843c-0.589-0.768-1.166-1.35-1.755-2.118
	c0.589-0.384,1.167-0.966,1.558-0.768c1.349,0.276,2.656,0.73,3.887,1.35c-1.555-4.038,4.862-2.304,4.273-5.761
	c-0.388-2.304,0.589-4.224,2.921-3.071c3.333,1.535,5.054-3.654,8.749-1.35c2.144,1.35,4.665-0.582,6.665-2.502
	c0.387-0.384,1.167-0.197,1.752-0.197c10.117,0.582,19.988-2.886,30.338-2.118c2.922,0.197,5.832,5.19,8.951,0.384
	c2.535,3.072,6.029,1.734,8.951,1.734c3.384,0.156,6.725,0.803,9.916,1.92c2.921,0.769,6.033,1.152,8.95,1.734
	c5.053,1.152,9.919,2.501,14.979,3.654c4.875,0.645,9.698,1.609,14.438,2.886c6.028,2.304,13.616,1.349,18.275,7.11
	c4.444-0.769,7.397,2.117,10.896,4.038c3.716,1.113,7.354,2.461,10.892,4.038c5.444,3.84,12.449,4.608,17.503,9.414
	c3.332,3.292,8.749,3.292,11.473,7.494c8.95,1.733,14.2,9.228,21.396,13.649c7.329,5.058,13.995,10.995,19.847,17.676
	c2.887,3.245,6.477,5.807,10.504,7.494l1.941,1.92c2.27,6.274,7.266,11.212,13.615,13.452c-0.656,2.474,0.843,5.005,3.345,5.653
	c0.178,0.046,0.359,0.082,0.542,0.107c0.392,1.536-0.977,3.654,1.944,3.84c0.388,1.536-0.977,3.654,1.94,3.84
	c0.393,1.537-0.976,3.654,2.922,4.389c0.589,0.198,0.202-0.197,0-0.582l-0.778,0.769c0.344,0.32,0.735,0.581,1.166,0.768
	c0,0,0.393-0.384-0.197-1.152c-1.166-1.92,0-4.225-2.921-4.389c-0.389-1.536,0.976-3.654-1.942-3.84
	c-0.391-1.536,0.979-3.654-1.943-3.84c0.655-2.474-0.843-5.005-3.346-5.653c-0.177-0.046-0.358-0.082-0.542-0.107
	c-0.976-5.574-5.254-9.228-7.587-14.034c-4.712-8.438-10.978-15.933-18.478-22.098c-1.751-1.733-3.696-3.292-3.495-6.342
	c0.197-1.152-1.756-3.292-2.721-3.456c-3.89-0.384-4.664-4.806-7.396-5.376c-3.699-0.582-3.498-3.84-5.254-5.574
	c-5.721-5.017-12.168-9.159-19.13-12.289c-7.141-2.71-13.348-7.376-17.891-13.452c1.364,0.385,3.107,0.385,4.084,1.35
	c2.721,2.501,5.053,5.574,9.527,4.608c0.779-0.198,2.145,0.965,2.922,1.92c1.756,2.502,4.44,1.734,6.81,1.92
	c2.332,6.583,9.914,5.376,13.813,9.611c4.274-1.35,6.661,1.536,8.749,4.225c1.771,3.188,5.819,4.354,9.045,2.606
	c0.534-0.29,1.028-0.649,1.463-1.07c0.39-0.384,1.163,0,2.721,0.582c0.59,0.198,0.197-0.197,0-0.582l-0.778,0.768
	c0.34,0.321,0.734,0.581,1.166,0.768c0,0,0.389-0.384-0.201-1.152c-0.724-1.348-1.06-2.865-0.977-4.389
	c3.11,1.152,4.866,4.608,8.949,4.224c1.757-0.198,3.701,1.92,5.254,3.292c1.556,1.372,2.722,2.688,4.086,0.197
	c0.2,0.198,0.589,0.384,0.589,0.769c-0.389,5.574,4.276,8.262,7.586,11.147c8.849,7.974,16.568,17.09,22.954,27.101
	c7.377,10.295,14.134,21.012,20.229,32.093c2.968,5.434,5.503,11.087,7.585,16.908c0.979,2.886,5.44,4.038,4.089,7.878
	c6.028,11.147,6.661,24.018,13.034,34.979c1.945,3.292-1.364,7.68,2.534,10.379c0.647,8.819,2.08,17.564,4.274,26.136
	c-0.062,5.82,0.592,11.626,1.939,17.291c2.146,5.959,0,11.916,1.755,17.491c1.941,11.812,2.53,23.803,1.756,35.747
	c0.389,5.573-2.333,10.764-2.143,16.524c-0.511,5.392-1.756,10.691-3.696,15.756c-1.368,5.189-2.922,10.379-4.443,15.36
	c-0.388,1.15-1.364,2.304-1.364,3.293c-0.253,4.275-0.905,8.522-1.944,12.683c-0.463,3.896-1.792,7.643-3.887,10.973
	c-0.589,0.966,0.59,2.886,0.779,4.225c0.977-0.384,1.751-0.77,2.72-1.151c-0.27,1.136-0.66,2.238-1.166,3.291
	c-3.285,6.345-6.148,12.894-8.563,19.607c-0.773,2.501-3.328,4.606-3.499,7.108c-0.388,3.072-5.642,1.152-4.083,4.992
	c-3.887,1.92,1.364,3.84-0.202,5.958c-2.331,3.653-3.695,8.263-6.417,11.718c-5.641,7.11-9.341,15.57-14.78,22.866
	c-6.343,8.881-13.514,17.153-21.419,24.71c-1.687,1.982-3.578,3.784-5.643,5.375c-3.111,1.734,5.249,3.841-0.59,5.377
	c-2.143,0.581-3.886,3.072-5.642,4.807c-1.731,1.937-3.617,3.734-5.643,5.376c-1.94,1.35-4.084,2.118-4.661,4.608
	c-0.467,1.213-1.611,2.041-2.921,2.117c-4.104-0.736-8.085,1.774-9.141,5.761c-1.364,3.072-9.915,6.925-15.17,9.798
	c-2.529,1.35-6.661,1.536-7.396,6.342c-1.04,3.518-4.486,5.785-8.172,5.377c-2.851-0.066-5.29,2.01-5.641,4.807
	c0,0.965-2.918,2.5-4.44,2.5c-6.325,0.711-12.386,2.885-17.704,6.344c-2.328,1.369-4.812,2.476-7.393,3.291
	c-7.587,1.92-14.438,5.957-21.788,8.263c-1.364,0.623-2.799,1.075-4.278,1.35c-7.949,0.701-15.785,2.379-23.316,4.992
	c-2.852,0.867-5.902,0.867-8.753,0c8.175-2.502,15.549-4.607,22.954-6.924c3.114-1.115,6.167-2.398,9.14-3.841
	c5.643-2.502,11.861-1.534,17.502-4.807c5.297-2.744,10.75-5.184,16.336-7.307c9.377-4.34,18.091-9.969,25.871-16.722
	c-2.53,0.58-4.863,1.351-7.396,1.921c-0.162-0.523-0.359-1.037-0.585-1.537c-0.349,0.598-0.814,1.119-1.367,1.537
	c-2.722,2.116-7.583,1.731-7.976,6.725c0,0.385-1.554,1.152-2.332,0.967c-4.661-1.152-7.394,2.502-11.103,3.654
	c-6.42,2.117-11.105,7.492-18.09,7.877c-2.622,2.537-5.931,4.271-9.528,4.992c-1.774,0.604-3.716,0.532-5.439-0.197
	c5.826-2.885,11.469-5.76,17.312-8.646c5.499-2.051,10.477-5.264,14.588-9.414c0.779-0.965,2.146-2.116,2.922-1.92
	c5.444,1.152,8.362-3.455,12.217-5.573c4.443-2.305,8.749-5.375,13.226-8.074c0.588-0.385,1.166-0.385,1.557-0.771
	c7.195-6.342,14.436-12.88,22.753-20.374h-5.053c1.94-1.92,3.695-3.84,5.641-5.761c1.167-0.966,2.722-1.536,3.697-2.501
	c2.72-2.887,5.254-6.156,8.172-8.844c2.724-2.688,5.831-4.992,8.563-7.681c2.922-2.887,5.83-5.958,8.95-8.646
	c1.569-1.154,2.324-3.098,1.944-4.993c0.681-0.571,1.215-1.298,1.555-2.117c0.197,0,0.588,0.385,1.165,0.77
	c5.129-4.724,8.488-11.023,9.528-17.875c-3.7,5.574-7.396,11.335-10.896,17.105c-0.288,0.846-0.83,1.584-1.554,2.117
	c-1.092,0.529-2.084,1.247-2.922,2.118c-3.843,4.057-8.077,7.731-12.646,10.972c-2.769,1.54-4.902,3.989-6.029,6.924
	c-0.589,1.733-4.665,1.921-6.809,3.653c-2.922,2.306-5.439,5.377-8.36,7.877c-1.854,1.564-3.875,2.918-6.029,4.039
	c-1.558,0.965-1.558,0.769-1.755-2.688c2.55,0.509,5.032-1.12,5.547-3.639c0.066-0.319,0.098-0.645,0.094-0.971
	c-1.755,1.536-3.698,3.072-5.641,4.608c-1.97-0.287-3.95,0.437-5.254,1.921c-8.319,6.881-17.162,13.117-26.449,18.65
	c-0.979,0.582-2.332,0.386-3.499,0.769c1.167-1.351,2.145-3.071,3.697-3.653c3.341-1.354,5.819-4.211,6.661-7.679
	c-5.439,2.884-9.727,5.375-14.201,7.679c-5.42,2.646-10.682,5.6-15.758,8.845c-3.938,2.904-8.698,4.519-13.616,4.607
	c0.202-3.291,5.643-1.535,5.254-6.154C393.583,546.724,389.96,548.757,386.987,551.556z M455.058,119.146
	c-0.546-0.625-1.206-1.146-1.945-1.536c0.98-3.457-1.555-4.993-3.329-6.583c-2.332-1.444-4.563-3.05-6.665-4.806
	c-1.94-2.118-6.028-2.118-6.219-5.958c-10.085-7.021-20.8-13.114-32.012-18.203c-1.166-0.384-2.921-1.35-3.111-0.965
	c-2.332,3.292-4.088,0.582-6.416-0.198c-6.277-1.885-12.391-4.262-18.28-7.11c-6.801-3.328-14.082-5.596-21.586-6.726
	c-7.749-2.088-15.707-3.314-23.732-3.654c-2.143-2.886-3.886-1.92-6.218-0.197c-1.455,0.766-3.207,0.766-4.661,0
	c-2.333-2.118-4.278-0.198-6.219,0c-2.385,0.319-4.792,0.447-7.199,0.384c5.582,1.439,11.354,2.024,17.114,1.733
	c5.814,0.253,11.458,2.045,16.335,5.19c1.363,0.768,2.529,2.118,3.887,2.304c5.183,1.112,10.457,1.755,15.758,1.92
	c4.986,0.018,9.932,0.929,14.588,2.688c3.902,1.53,7.939,2.687,12.063,3.457c4.779,0.479,9.378,2.056,13.426,4.608
	c14.592,11.147,32.091,17.489,45.908,29.625c2.03,1.301,4.384,2.032,6.803,2.118c1.146,1.122,2.385,2.149,3.701,3.072
	c-0.393-0.384-0.59-0.768-0.978-1.152l-0.779,0.769c0.342,0.32,0.735,0.58,1.167,0.768c-0.035,0.187,0.153-0.197-1.398-1.536
	L455.058,119.146L455.058,119.146z M471.781,511.387c-0.388,0.386-0.778,0.582-1.167,0.966l0.779,0.77
	c0.325-0.338,0.585-0.728,0.774-1.152c0,0-0.388-0.385-1.752,1.92v-0.768c-0.55,0.106-1.074,0.305-1.557,0.581
	c-0.199,0,0.201,0.769,0.391,1.15c0.59-0.383,0.978-0.58,2.542-3.454L471.781,511.387z M435.603,488.137
	c0.728-0.775,1.585-1.426,2.53-1.92c2.494,0.377,4.822-1.313,5.201-3.773c0.045-0.276,0.062-0.557,0.053-0.833
	c-1.747,1.534-3.692,3.07-5.832,4.606c-0.825,0.754-1.489,1.67-1.94,2.688v-0.77c-0.55,0.109-1.075,0.306-1.558,0.582
	c-0.197,0,0.201,0.769,0.392,1.152c0.565-0.438,0.978-1.047,1.166-1.734L435.603,488.137L435.603,488.137z M420.053,484.297
	l1.944-1.92c0.59-0.582,1.364-1.35,1.364-0.385l11.675-11.53c0.197-0.198,0.389-0.583,0.197-0.583l-1.94-1.919
	c-2.922,4.608-8.754,6.144-9.527,12.683l-1.945,1.922l-1.755,1.732c-0.589,0.582-1.364,1.35,0.393,2.117
	c-4.867-0.197-7.2-0.197-5.643,3.654c1.582-0.701,2.788-2.027,3.33-3.654c0.588-0.743,1.226-1.45,1.901-2.117H420.053
	L420.053,484.297z M458.92,467.005l1.944-1.921l1.945-1.92c0.585-0.581,1.363-1.35,1.162-2.304c2.921-0.581,5.442-1.535,3.89-5.958
	c-1.427,1.903-2.481,4.056-3.111,6.342l-1.939,1.92l-1.945,1.92L458.92,467.005l-1.94,1.92l-1.946,1.921l-1.94,1.92
	c-2.135,2.021-4.087,4.225-5.831,6.582v-0.768c-0.546,0.108-1.071,0.305-1.554,0.582c-0.201,0,0.197,0.768,0.388,1.152
	c0.569-0.438,0.977-1.048,1.166-1.734c4.277-0.384,5.443-1.535,5.831-5.76l1.94-1.92l1.946-1.92L458.92,467.005z M456.2,155.672
	h0.78c-0.111-0.541-0.31-1.06-0.59-1.537c0-0.197-0.778,0.198-1.166,0.384c0.411,0.453,0.743,0.973,0.976,1.536
	c1.167,1.733,2.333,3.456,3.888,5.958c1.778-4.421-0.787-5.189-3.862-6.341H456.2z M58.422,240.223
	c-0.198-0.198-0.589-0.198-0.775-0.384c-0.98,2.501-1.944,4.806-2.922,7.308c0.475,0.292,1.004,0.49,1.554,0.581
	c0.59,0,1.555-0.198,1.555-0.384c0.272-3,0.861-5.964,1.755-8.844c-0.387,0.384-0.774,0.582-1.166,0.965l0.779,0.768
	c0.323-0.336,0.585-0.727,0.774-1.152C60.023,238.884,59.631,238.687,58.422,240.223z M53.171,188.138
	c-1.559,2.304-2.534,3.292-2.534,4.039c0,1.151,0.202,3.291,0.976,3.456c1.368,0.768,3.111,0.198,2.922-2.118
	c-0.197-1.35-0.589-2.501-3.499,4.038c-0.515-0.529-0.974-1.11-1.364-1.733c-0.387,0.384-0.978,0.965-0.978,1.35
	c0.079,0.816,0.345,1.603,0.775,2.304c0.447-0.373,0.834-0.944,3.744-11.323L53.171,188.138z M431.673,133.563
	c5.438,5.19,10.892,10.566,16.331,15.756c0.17,0.128,0.376,0.198,0.59,0.197c0.222-0.239,0.484-0.436,0.777-0.582
	c-3.926-6.974-10.16-12.402-17.655-15.372L431.673,133.563L431.673,133.563z M62.356,350.734
	c-0.589-6.343,1.163-11.719-4.443-17.105C59.446,339.586,56.137,345.347,62.356,350.734z M469.448,128.955
	c0.779,4.224,0.779,4.224,5.255,6.583C474.703,131.841,471.204,131.072,469.448,128.955z M61.189,235.23
	c1.364-3.292,2.329-5.574,3.495-8.646C60.221,228.505,59.631,231.006,61.189,235.23z M25.02,413.385
	c0.778-3.293-0.977-4.608-3.329-6.342C20.936,410.499,22.675,411.651,25.02,413.385z M117.011,191.024
	c-0.391-1.35-0.588-1.733-0.778-2.304c-1.167,0.768-2.143,1.734-3.333,2.502c0.589,0.384,0.98,0.965,1.368,0.965
	C115.268,191.792,116.043,191.408,117.011,191.024z M443.755,501.59c-0.779-1.152-0.981-1.537-1.368-2.119
	c-0.778,1.152-1.756,2.119-2.53,3.292c0.589,0.198,1.166,0.77,1.553,0.581C442.304,502.921,443.099,502.325,443.755,501.59z
	 M108.65,350.35l-2.724-2.688c-0.388,0.769-1.162,1.921-0.978,2.305c0.764,0.731,1.7,1.259,2.721,1.536
	C107.873,351.688,108.46,350.92,108.65,350.35z M50.104,205.441c0.214-0.883,0.344-1.782,0.393-2.688
	c0-0.198-0.779-0.581-1.167-0.768c-0.289,0.81-0.487,1.649-0.59,2.501C48.74,204.871,49.54,205.058,50.104,205.441z
	 M523.163,466.577c-0.391-0.769-0.777-1.535-0.976-1.535c-0.866,0.102-1.716,0.297-2.534,0.582c0.201,0.383,0.388,1.151,0.778,1.151
	c0.905,0.036,1.812-0.016,2.709-0.153L523.163,466.577z M21.513,403.203c-0.344-0.606-0.735-1.188-1.166-1.732
	c-0.408,0.73-0.736,1.503-0.981,2.304c0,0.384,0.59,0.966,0.981,1.535C20.773,404.629,21.166,403.926,21.513,403.203z
	 M488.705,377.637c-0.524-0.339-1.13-0.538-1.754-0.581c-0.459,0.373-0.681,0.957-0.59,1.536c0.32,0.62,0.712,1.201,1.167,1.733
	C487.808,379.385,488.204,378.483,488.705,377.637z M262.114,57.461c0-0.582,0-1.536-0.197-1.536c-0.843-0.096-1.692-0.096-2.534,0
	v1.13C260.252,57.392,261.186,57.531,262.114,57.461z M17.812,398.968l0.779,0.768c0.313-0.393,0.514-0.856,0.589-1.351
	c0-0.197-0.392-0.383-0.589-0.581C18.263,398.144,18.002,398.538,17.812,398.968z M491.437,93.789l0.775-0.768
	c-0.396-0.308-0.866-0.508-1.364-0.582c-0.201,0-0.389,0.384-0.589,0.582C490.603,93.343,491.002,93.603,491.437,93.789z
	 M156.7,182.378c1.053-1.802,2.218-3.535,3.495-5.189c4.52-5.972,9.532-11.565,14.983-16.722
	c5.053-4.037,10.303-7.681,15.367-11.718c1.023-1.134,1.7-2.535,1.944-4.038c0.775-3.292,2.329-4.992,5.828-4.608v-3.84
	c-6.844,4.181-13.347,8.88-19.455,14.055c-9.88,8.27-18.933,17.455-27.036,27.431c-0.393,0.384,0,1.92,0,2.885
	C153.656,180.217,155.561,180.899,156.7,182.378z M298.684,17.292c1.554,0.965,0.197,5.958,4.661,3.072
	c2.265-0.97,4.74-1.367,7.199-1.152c7.97-0.197,15.943,0,24.692,0c-1.027-0.842-1.94-1.812-2.72-2.886
	c-0.198-0.965,3.886-1.733,0.391-2.886c-2.333-0.767-4.088-2.501-7.01-1.919c-5.408,0.779-11.46-1.338-16.513,2.128
	c-8.377-0.179-16.577,2.391-23.317,7.308C289.93,19.41,296.149,24.599,298.684,17.292z M126.35,243.493
	c0.589-4.038,4.273-11.718,4.862-14.988c0.778-4.224,4.867-6.342,4.867-10.38c0.289-3.007,1.289-5.904,2.917-8.459
	c1.309-2.292,2.29-4.751,2.922-7.307c0.332-3.957,2.135-7.653,5.052-10.38c3.396-2.756,5.148-7.02,4.666-11.334
	c-5.1,3.829-9.061,8.941-11.473,14.801c-4.132,8.134-7.84,16.474-11.105,24.983c-3.052,8.193-4.697,16.835-4.863,25.565
	C125.184,245.029,126.161,244.458,126.35,243.493z M439.502,440.288c3.886-5.76,7.974-11.531,11.858-17.291
	c2.72-4.037,8.561-6.728,7.772-13.068c4.862-3.071,5.053-8.843,7.396-13.266c2.53-4.389,3.696-9.414,6.416-13.648
	c1.759-2.849,1.98-6.373,0.59-9.414c-2.333,5.574-3.696,9.995-5.832,14.265c-6.324,13.562-13.942,26.498-22.752,38.633
	c-4.272,5.574-6.661,12.881-13.614,16.721C437.555,443.558,437.358,443.36,439.502,440.288z M108.65,116.074
	c1.941-0.966,2.53-4.992,4.274-5.574c4.863-1.152,4.863-6.145,8.171-8.262c8.259-6.371,16-13.374,23.144-20.946
	c3.111-2.886,6.22-5.574,9.528-8.459c-3.088,0.001-6.041,1.25-8.172,3.457c-3.111,2.688-7.195,3.84-9.729,8.075
	c-2.822,3.488-6.167,6.532-9.914,9.03c-2.879,2.004-5.321,4.551-7.196,7.494c-1.755,3.654-5.052,4.806-7.587,7.11
	c-1.555,1.35-3.499,2.118-5.25,3.457c-2.028,1.085-3.124,3.331-2.721,5.574C104.95,116.074,107.282,116.842,108.65,116.074z
	 M481.321,347.815c1.178-3.4,2.154-6.865,2.921-10.38c0.389-3.071-0.201-6.342,0.197-9.61c0.203-3.292-1.553-7.11,1.756-9.799
	c-3.696-2.688,0.978-4.992,0.388-8.075c-1.236-7.188-2.084-14.436-2.529-21.714c-1.617,9.789-2.075,19.731-1.368,29.625
	c0.779,10.182-2.721,19.75-2.144,29.976L481.321,347.815z M102.23,103.39c1.555-2.501,3.697-4.992,2.72-8.459
	c-0.197-0.384-0.589-0.582-0.977-0.966c-0.396,0.466-0.724,0.983-0.977,1.536c-0.324,0.595-0.522,1.248-0.59,1.92
	c-1.166-1.152-3.106-3.456-3.333-3.292c-2.15,1.183-4.009,2.825-5.439,4.806c-0.589,1.152,0.779,3.292,1.167,4.993
	c0.388,1.701,0.589,3.456,1.166,5.574C98.289,107.713,100.392,105.662,102.23,103.39z M320.08,25.18
	c-2.333,2.689-5.25,1.537-7.971,1.735c-2.534,0.197-5.052,0-7.586,0.197c-0.388,0-0.977,1.35-0.977,2.304
	c0,0.385,0.588,1.35,0.977,1.35c7.219,1.126,14.611,0.054,21.198-3.072C323.19,26.333,320.491,24.786,320.08,25.18z
	 M490.081,280.831v20.76c0.147,0.809,0.646,1.511,1.368,1.92c0.59,0.14,1.21,0.068,1.752-0.196c0.392-0.77,0.979-2.306,0.778-2.502
	c-2.53-1.921-1.756-4.389-1.945-6.924v-13.111L490.081,280.831z M404.687,552.521c-0.976,0.385-1.364,1.922-2.143,2.887
	c5.413-1.527,10.587-3.791,15.367-6.728c0.979-0.383,1.367-1.92,2.142-2.885C414.626,547.275,409.447,549.542,404.687,552.521z
	 M478.791,348.441c0.197,6.342-3.333,12.068-2.333,18.651c0.59-0.384,1.555-0.769,1.941-1.535c1.93-5.709,2.608-11.756,2-17.742
	c-0.446,0.229-1.608,0.419-1.608,0.614V348.441z M263.08,26.903c4.088-0.768,8.176-1.35,12.063-2.118
	c0.387-0.197,0.774-1.536,0.977-2.304c-0.044-0.187-1.154-0.538-1.554-0.538c-2.333,0.384-4.862,0.582-7.01,1.152
	c-1.7,0.506-3.333,1.218-4.863,2.118C262.731,25.793,262.865,26.363,263.08,26.903z M308.211,8.075
	c3.329,2.886,4.273-1.92,4.661-1.92c-2.53,0.384-7.583-2.886-12.212,4.038C304.125,9.03,307.432,7.307,308.211,8.075z
	 M481.51,280.589c1.022-3.024,1.87-6.106,2.529-9.228c0.201-0.582-1.167-1.734-1.94-2.305c-0.201-0.197-1.756,0.769-1.756,1.35
	c-0.201,3.292,0,6.727,0,9.996C480.711,280.557,481.111,280.622,481.51,280.589z M114.292,337.644
	c1.94-4.224-0.589-7.492-3.499-13.066c-0.7,4.652,0.564,9.384,3.499,13.09V337.644z M152.612,94.173c3.887,0,4.44-3.292,6.661-5.19
	C154.944,89.751,154.944,89.751,152.612,94.173z M42.675,169.124c-4.273,1.152-4.084,4.389-3.886,7.68
	c2.573-1.708,4.06-4.619,3.921-7.68H42.675z M386.92,551.568c0,0.383,0.198,0.768,0,0.965c-0.549,0.731-1.202,1.379-1.945,1.92
	c0.779,0.385,1.945,1.152,2.333,0.768c1.889-1.17,3.708-2.451,5.439-3.84c-1.874,0.176-3.819,0.176-5.761,0.176L386.92,551.568z
	 M290.508,30.359c1.368,1.152,2.333,3.292,4.444,1.92c0.387-0.197,0.588-0.965,0.588-1.536c-0.201-3.072-2.72-1.536-4.277-1.92
	c-0.597,0.158-1.182,0.352-1.751,0.582L290.508,30.359z M391.462,490.826c-4.665-1.733-7.009-0.581-8.753,3.652
	c3.11-1.338,5.63-2.304,8.753-3.643V490.826z M56.913,176.804c-5.053,1.536-4.274,4.806-4.44,9.798
	C54.381,182.378,55.548,179.887,56.913,176.804z M34.547,184.331c5.052-1.536,4.276-4.806,4.442-9.798
	C37.069,178.725,35.903,181.226,34.547,184.331z M108.848,155.31l1.166-3.457h-0.977c-2.332-0.197-2.143,1.537-2.143,3.072v4.608
	c0.731-1.377,1.383-2.795,1.953-4.246V155.31z M209.446,106.857c4.44,1.536,5.25-0.965,6.029-3.84
	C213.689,104.158,211.933,105.332,209.446,106.857z M186.125,115.701c1.167-1.92,1.945-3.457,2.922-5.19
	c-2.598,0.757-5.898,1.723-2.989,5.179L186.125,115.701z M175.755,60.346c-4.443-1.536-5.254,0.966-6.033,3.841
	C171.478,63.035,173.222,61.882,175.755,60.346z M264.447,42.857h-7.587v0.768h7.587V42.857z M485.796,78.604
	c-1.184,1.288-2.294,2.636-3.334,4.038c0.201,2.886,2.333,1.537,3.887,1.92C486.183,82.642,485.95,80.722,485.796,78.604z
	 M420.053,545.796c2.507,0.648,5.067-0.832,5.725-3.305c0.048-0.176,0.083-0.355,0.107-0.536c-2.556-0.62-5.136,0.925-5.76,3.45
	c-0.032,0.129-0.061,0.26-0.079,0.391H420.053z M416.168,468.925c0.372-1.183,0.83-2.338,1.368-3.456
	c-1.337,0.334-2.638,0.786-3.887,1.351c-0.608,0.598-1.076,1.319-1.368,2.116L416.168,468.925z M468.681,222.931
	c0.59-3.072-0.774-4.389-3.495-5.761c-0.791,2.875,0.577,4.466,3.487,5.761H468.681z M468.681,73.03
	c0.358,2.533,2.728,4.3,5.29,3.947c0.182-0.025,0.362-0.061,0.541-0.107c-0.355-2.533-2.721-4.301-5.285-3.95
	c-0.188,0.025-0.371,0.063-0.554,0.11H468.681z M120.708,249.834c-0.589,0-1.364,0.768-1.941,0.965l2.53,2.502
	c0.388-0.581,0.977-1.152,1.945-2.304C122.463,250.478,121.609,250.085,120.708,249.834z M589.458,235.801
	c-0.201-1.734-0.589-3.292-0.778-4.992c-0.339-0.029-0.675,0.04-0.977,0.197v5.19c0.589-0.198,1.178-0.198,1.764-0.384
	L589.458,235.801z M478.411,261.75c0.162,1.742,0.423,3.475,0.778,5.189h0.978v-5.189H478.411z M492.026,276.739
	c-0.688-0.742-1.47-1.387-2.332-1.921c-0.388,0.581-0.977,1.152-0.977,1.536c0.475,1.391,1.06,2.74,1.752,4.037
	c1.158-2.688,1.743-3.455,1.546-3.652H492.026z M357.815,560.982c-1.944,0.196-3.886,0.58-5.642,0.768
	c-0.017,0.457,0.052,0.916,0.198,1.35c1.944,0,3.699-0.196,5.641-0.196C357.862,562.273,357.795,561.626,357.815,560.982z
	 M44.665,163.353c-3.696,0.965-1.166,3.84-1.945,5.76C46.609,168.158,44.076,165.272,44.665,163.353z M124.404,417.028l-3.886-3.841
	c-0.589,3.082,0.779,4.422,3.886,3.851V417.028z M429.384,449.702c-1.555,0.967-2.922,1.921-5.644,3.654
	C428.605,453.553,430.938,453.553,429.384,449.702L429.384,449.702z M173.609,459.314c-1.554,3.652,0.779,3.84,5.642,3.652
	C176.53,461.234,175.167,460.465,173.609,459.314L173.609,459.314z M460.889,204.673c-0.035-0.846-0.166-1.685-0.392-2.501
	c-0.389,0.197-1.167,0.197-1.167,0.383c0,0.966,0.202,2.118,0.392,3.84c0.787-1.141,1.175-1.338,1.175-1.723L460.889,204.673
	L460.889,204.673z M361.702,559.248c-1.555,0.385-3.696-0.965-3.887,1.92C359.356,560.785,361.702,562.134,361.702,559.248z
	 M336.416,548.681c0.388,0.386,0.778,0.968,0.977,0.769c1.009-0.299,1.985-0.687,2.922-1.15c-0.601-0.289-1.189-0.611-1.755-0.967
	C337.921,547.892,337.198,548.347,336.416,548.681z M397.879,557.329c-0.854,0.032-1.704,0.161-2.53,0.385
	c0.198,0.382,0.198,1.149,0.388,1.149c0.977,0,2.144-0.197,3.887-0.383C398.457,557.713,398.069,557.329,397.879,557.329z
	 M402.544,555.408c-1.555,0.383-3.697-0.965-3.887,1.921C400.211,556.944,402.544,558.292,402.544,555.408z M81.621,186.416
	c-2.922,0.197-1.555,2.304-1.945,3.84C82.585,190.069,81.419,187.766,81.621,186.416z M412.269,468.925h-1.94
	c-0.53,0.162-1.048,0.356-1.555,0.581c0.546,0.496,1.13,0.947,1.751,1.351c0.645,0.098,1.302,0.098,1.945,0
	C412.317,470.225,412.25,469.575,412.269,468.925z M419.279,459.314c-0.857,0.032-1.704,0.161-2.533,0.384
	c0.2,0.385,0.2,1.151,0.391,1.151c0.977,0,2.143-0.196,3.886-0.385c-1.166-0.733-1.553-1.15-1.7-1.15H419.279z M140.942,397.87
	c-0.388,0.385-0.977,0.769-0.778,0.966c0.304,0.993,0.695,1.959,1.167,2.886c0.292-0.596,0.621-1.174,0.977-1.732
	c-0.597-0.823-0.977-1.591-1.364-2.173L140.942,397.87L140.942,397.87z M134.134,380.579c0.388,1.535-0.978,3.653,1.945,3.84
	c-0.201-1.592,0.965-3.688-1.945-3.895V380.579z M475.679,367.126c-0.389,0.383-0.978,0.966-0.978,1.349
	c0.079,0.816,0.349,1.604,0.774,2.306c0.392-0.582,0.979-1.153,1.558-1.92c-0.415-0.623-0.87-1.221-1.354-1.789V367.126z
	 M383.101,493.963c-1.558,0.385-3.7-0.965-3.89,1.92c1.545-0.438,3.89,0.911,3.89-1.975V493.963z M373.373,500.69
	c-0.74-0.402-1.522-0.728-2.333-0.967c-0.389,0-0.977,0.581-1.555,0.967c0.736,0.343,1.451,0.728,2.144,1.151
	c0.546-0.449,1.131-0.853,1.744-1.207V500.69z M0.125,302.688c0.103,0.853,0.301,1.691,0.589,2.502
	c0.387-0.198,1.166-0.385,1.166-0.77c-0.051-0.906-0.187-1.806-0.403-2.688C0.899,302.106,0.125,302.49,0.125,302.688z
	 M369.485,524.653c-1.554,0.384-3.695-0.966-3.886,1.92c1.53-0.384,3.875,0.966,3.875-1.92H369.485z M460.897,532.332
	c1.558-0.382,3.701,0.968,3.891-1.919c-1.367,0.197-3.7-0.954-3.891,1.932V532.332z M6.731,265.207
	c0.407-0.731,0.736-1.504,0.978-2.304c0-0.385-0.589-0.967-0.978-1.537c-0.348,0.729-0.734,1.436-1.166,2.118
	C6.043,263.995,6.434,264.576,6.731,265.207z M477.434,255.65c0.388-0.581,0.977-0.966,0.977-1.536
	c-0.153-0.828-0.489-1.613-0.977-2.305c-0.388,0.582-0.589,0.966-1.166,1.734C476.695,254.223,477.086,254.926,477.434,255.65z
	 M122.463,249.834c2.921-0.197,1.554-2.304,1.94-3.84C121.487,246.18,122.832,248.298,122.463,249.834z M372.593,532.344
	c-0.854,0.033-1.704,0.162-2.53,0.384c0.201,0.385,0.201,1.152,0.387,1.152c0.978,0,2.144-0.198,3.887-0.384
	C373.169,532.729,372.782,532.344,372.593,532.344z M472.756,237.348c0.104,0.853,0.301,1.692,0.59,2.502
	c0.388-0.198,1.166-0.384,1.166-0.768c-0.047-0.906-0.179-1.806-0.389-2.688C473.537,236.767,472.756,237.151,472.756,237.348z
	 M586.157,221.197c-0.197,0.582-0.773,1.152-0.589,1.536c0.321,0.62,0.712,1.203,1.166,1.733c0.202-0.581,0.394-0.965,0.981-2.501
	C587.514,221.779,586.734,221.636,586.157,221.197z M461.866,205.639c-0.392,0.384-0.977,0.769-0.778,0.966
	c0.305,0.993,0.695,1.958,1.166,2.886c0.293-0.596,0.616-1.175,0.978-1.734C462.632,206.978,462.252,206.209,461.866,205.639z
	 M143.852,98.968c0.387,0.384,0.775,0.966,0.978,0.768c1.004-0.3,1.979-0.686,2.921-1.152c-0.605-0.288-1.19-0.611-1.755-0.965
	C145.357,98.178,144.634,98.634,143.852,98.968z M157.463,71.099c-1.554,0.384-3.697-0.966-3.887,1.92
	c1.558-0.373,3.897,0.966,3.897-1.909L157.463,71.099z M427.831,62.453c-0.392-0.384-0.979-0.966-1.367-0.966
	c-0.826,0.081-1.621,0.343-2.333,0.768c0.589,0.384,1.166,0.966,1.944,1.536c0.609-0.408,1.194-0.852,1.756-1.328V62.453z
	 M178.863,56.692c0.388,0.384,0.779,0.966,0.978,0.769c1.008-0.3,1.983-0.686,2.922-1.153c-0.605-0.288-1.19-0.61-1.755-0.965
	C180.37,55.902,179.646,56.358,178.863,56.692z M116.675,126.837c2.921-0.198,1.558-2.304,1.945-3.84
	c-2.965,0.186-1.609,2.305-2,3.84H116.675z M175.222,122.997c-0.099,0.574-0.099,1.16,0,1.733c0.589-0.384,1.755-0.768,1.941-1.35
	c0.189-0.581-0.197-1.536-0.589-3.292c-0.699,0.842-1.187,1.84-1.407,2.908L175.222,122.997L175.222,122.997z M264.502,41.321
	c0.388,0.384,0.778,0.965,0.977,0.768c1.004-0.3,1.984-0.686,2.921-1.152c-0.604-0.288-1.188-0.611-1.755-0.966
	c-0.653,0.564-1.396,1.02-2.198,1.35H264.502z M270.334,39.4c0.738,0.403,1.521,0.727,2.328,0.966c0.392,0,0.98-0.582,1.558-0.966
	c-0.735-0.343-1.451-0.728-2.143-1.152c-0.63,0.338-1.227,0.723-1.792,1.152H270.334z M163.306,67.259
	c1.554-0.384,3.696,0.965,3.886-1.92C165.836,65.536,163.504,64.384,163.306,67.259z M81.621,147.98
	c2.922-0.197,1.554-2.304,1.941-3.84C80.632,144.327,82.008,146.444,81.621,147.98z M219.129,113.583
	c-0.389,0.582-0.978,0.965-1.167,1.733c-0.198,0.384,0.387,0.965,0.589,1.536c0.779-0.384,1.364-0.582,1.755-0.768
	C219.816,115.299,219.421,114.459,219.129,113.583z M320.08,0c-0.197,0-0.59,0.768-0.774,1.152c0.818,0.285,1.668,0.48,2.53,0.582
	c0.201,0,0.589-0.768,0.976-1.536C321.823,0.197,320.858,0,320.08,0z M248.111,82.642c-0.854,0.034-1.704,0.162-2.529,0.384
	c0.197,0.384,0.197,1.152,0.387,1.152c0.977,0,2.143-0.198,3.886-0.384C248.689,83.026,248.313,82.642,248.111,82.642z
	 M248.111,26.915c-0.197,0-0.589,0.768-0.778,1.151c0.821,0.285,1.672,0.48,2.533,0.582c0.198,0,0.59-0.768,0.978-1.536
	c-0.988-0.011-1.953-0.208-2.731-0.208L248.111,26.915L248.111,26.915z M299.458,27.88c0-0.197-0.774-0.582-1.166-0.768
	c-0.289,0.81-0.483,1.649-0.589,2.501c0,0.198,0.777,0.582,1.558,0.966c0-0.955,0.197-1.942,0.197-2.71V27.88L299.458,27.88z
	 M163.306,67.259c-1.553,0.384-3.696-0.965-3.886,1.919C160.974,68.806,163.306,70.145,163.306,67.259z M242.272,28.856
	c-0.202,0-0.589,0.768-0.778,1.152c0.817,0.285,1.668,0.479,2.529,0.582c0.202,0,0.589-0.768,0.981-1.536
	c-0.981-0.033-1.957-0.23-2.732-0.23V28.856z M235.262,31.742c0.589,0.384,0.977,0.965,1.554,0.965
	c0.838-0.154,1.638-0.483,2.333-0.965c-0.589-0.384-0.977-0.582-1.752-1.152c-0.688,0.413-1.395,0.786-2.123,1.119L235.262,31.742z
	 M404.485,479.482l0.779,0.767c0.324-0.336,0.589-0.727,0.778-1.151l-0.589-0.582C405.236,478.924,404.9,479.26,404.485,479.482z
	 M461.866,67.259c-0.202,0.197-0.589,0.384-0.589,0.582c0.232,0.434,0.426,0.885,0.589,1.35l0.775-0.768
	C462.455,67.992,462.19,67.599,461.866,67.259z M159.408,69.178l-1.944,1.921L159.408,69.178z M394.76,481.412l0.773,0.769
	c0.329-0.337,0.59-0.727,0.779-1.151l-0.589-0.582C395.507,480.857,395.171,481.192,394.76,481.412z M404.485,480.446
	c-0.546,0.107-1.07,0.305-1.554,0.582c-0.197,0,0.202,0.768,0.392,1.151c0.389-0.385,0.775-0.581,1.162-0.966V480.446z
	 M453.113,68.224c0.399,0.308,0.87,0.508,1.368,0.582c0.197,0,0.387-0.384,0.589-0.582c-0.431-0.187-0.826-0.447-1.166-0.768
	L453.113,68.224z M471.591,71.11c0.312-0.391,0.514-0.857,0.588-1.35c0-0.197-0.388-0.384-0.588-0.582
	c-0.19,0.427-0.45,0.816-0.775,1.153C471.204,70.528,471.405,70.913,471.591,71.11z M394.76,482.377
	c-0.546,0.107-1.071,0.305-1.554,0.582c-0.202,0,0.196,0.768,0.387,1.151c0.387-0.385,0.779-0.581,1.167-0.967V482.377z
	 M164.283,430.491l-0.778,0.768c0.344,0.32,0.734,0.58,1.167,0.769l0.589-0.581C164.844,431.23,164.504,430.897,164.283,430.491z
	 M141.918,437.215c0.396,0.31,0.866,0.509,1.363,0.582c0.202,0,0.393-0.384,0.59-0.582c-0.432-0.187-0.822-0.447-1.167-0.768
	L141.918,437.215z M431.749,443.942c-0.546,0.107-1.07,0.305-1.554,0.582c-0.202,0,0.201,0.768,0.388,1.15
	c0.392-0.384,0.778-0.581,1.166-0.966V443.942z M482.285,82.642l-1.886-1.92C481.12,81.266,481.755,81.913,482.285,82.642z
	 M425.885,453.499l-1.941,1.92L425.885,453.499z M423.944,455.418l-1.945,1.92L423.944,455.418z M473.537,80.722l-0.779,0.768
	c0.341,0.321,0.735,0.581,1.167,0.768l0.589-0.582C474.097,81.461,473.757,81.129,473.537,80.722z M421.987,457.393l-1.94,1.922
	L421.987,457.393z M480.399,80.722c-0.11-0.541-0.309-1.06-0.589-1.536c0-0.198-0.778,0.197-1.167,0.384
	c0.389,0.384,0.59,0.768,0.978,1.152H480.399z M472.627,80.722c-0.111-0.541-0.311-1.06-0.591-1.536
	c0-0.198-0.777,0.197-1.166,0.384c0.389,0.384,0.589,0.768,0.977,1.152H472.627z M475.543,76.881l-0.773,0.768
	c0.34,0.321,0.734,0.581,1.166,0.768l0.589-0.582c-0.443-0.207-0.807-0.544-1.048-0.966L475.543,76.881z M464.85,75.916
	c0.202,0.197,0.392,0.581,0.589,0.581c0.438-0.229,0.898-0.423,1.368-0.581l-0.778-0.769c-0.345,0.355-0.771,0.618-1.241,0.769
	H464.85z M468.737,73.03c-0.106-0.541-0.309-1.061-0.585-1.536c0-0.198-0.778,0.197-1.167,0.384c0.389,0.384,0.59,0.768,0.978,1.152
	H468.737z M451.239,72.065l0.774,0.768c0.325-0.336,0.589-0.727,0.778-1.152l-0.589-0.581c-0.233,0.419-0.598,0.757-1.031,0.966
	L451.239,72.065L451.239,72.065z M369.474,515.052c-0.546,0.108-1.071,0.306-1.554,0.581c-0.202,0,0.196,0.77,0.387,1.152
	c0.388-0.384,0.779-0.582,1.167-0.965V515.052z M365.587,526.584c-0.546,0.107-1.072,0.305-1.555,0.581
	c-0.201,0,0.197,0.769,0.388,1.151c0.387-0.384,0.778-0.581,1.167-0.966V526.584z M457.002,528.504
	c-0.11-0.541-0.31-1.061-0.59-1.537c0-0.197-0.777,0.198-1.166,0.385c0.389,0.385,0.59,0.769,0.978,1.152H457.002z M466.728,528.504
	l1.945-1.92L466.728,528.504z M457.979,528.504l-0.778,0.769c0.34,0.319,0.734,0.579,1.166,0.768l0.589-0.581
	C458.541,529.245,458.201,528.912,457.979,528.504z M464.788,530.424l1.94-1.92L464.788,530.424z M254.717,45.161
	c-0.396-0.308-0.866-0.508-1.364-0.582c-0.202,0-0.388,0.384-0.589,0.582c0.431,0.188,0.826,0.447,1.167,0.768L254.717,45.161z
	 M460.889,532.323c-0.55,0.106-1.075,0.305-1.559,0.581c-0.197,0,0.202,0.769,0.392,1.15c0.388-0.383,0.775-0.581,1.167-0.965
	V532.323L460.889,532.323z M286.811,36.515c-0.312,0.392-0.514,0.857-0.589,1.349c0,0.198,0.388,0.384,0.589,0.582
	c0.19-0.426,0.451-0.815,0.779-1.152C287.4,36.899,287.013,36.702,286.811,36.515z M282.369,37.097
	c0.232,0.434,0.431,0.885,0.589,1.35c0.201-0.198,0.589-0.384,0.589-0.582c-0.229-0.433-0.427-0.885-0.589-1.349
	c-0.222,0.187-0.608,0.384-0.608,0.57L282.369,37.097z M268.301,35.549c0.396,0.308,0.866,0.508,1.364,0.582
	c0.202,0,0.387-0.384,0.589-0.582c-0.432-0.187-0.826-0.447-1.167-0.768L268.301,35.549z M336.373,549.636
	c-0.546,0.107-1.072,0.306-1.555,0.582c-0.202,0,0.197,0.769,0.388,1.152c0.387-0.385,0.778-0.582,1.167-0.967V549.636z
	 M443.352,557.316c0.166,0.522,0.363,1.036,0.588,1.536c0.349-0.598,0.815-1.118,1.368-1.536H443.352z M285.847,21.143
	c-0.55,0.108-1.076,0.305-1.558,0.582c-0.198,0,0.201,0.768,0.391,1.152c0.388-0.384,0.775-0.582,1.167-0.965V21.143L285.847,21.143
	z M391.85,559.248c-0.202,0.198-0.589,0.385-0.589,0.582c0.233,0.434,0.427,0.885,0.589,1.35l0.779-0.768
	C392.439,559.982,392.174,559.587,391.85,559.248z M219.718,572.744c-0.545,0.106-1.071,0.305-1.554,0.582
	c-0.201,0,0.197,0.768,0.388,1.149c0.388-0.383,0.779-0.579,1.167-0.965L219.718,572.744L219.718,572.744z M397.689,484.341
	c-0.309,0.394-0.514,0.856-0.585,1.351c0,0.197,0.389,0.384,0.585,0.581c0.19-0.427,0.455-0.814,0.779-1.152
	c-0.245-0.438-0.589-0.625-0.787-0.822L397.689,484.341z M374.373,493.953c-0.313,0.392-0.515,0.855-0.59,1.35
	c0,0.198,0.388,0.385,0.59,0.581c0.189-0.425,0.45-0.813,0.774-1.15c-0.241-0.438-0.608-0.638-0.811-0.823L374.373,493.953z
	 M169.145,63.418l-1.94,1.92L169.145,63.418z M377.258,497.749l1.945-1.92L377.258,497.749z M377.258,497.749
	c-0.546,0.109-1.071,0.305-1.554,0.582c-0.202,0,0.197,0.768,0.387,1.152c0.388-0.386,0.779-0.582,1.167-0.967V497.749z
	 M178.863,57.658c-0.545,0.108-1.07,0.305-1.554,0.582c-0.202,0,0.198,0.768,0.388,1.152c0.388-0.384,0.779-0.582,1.166-0.965
	V57.658z M371.419,513.131h-1.945v1.921L371.419,513.131z M120.518,140.289l1.945-1.92L120.518,140.289z M124.404,136.449
	l-1.94,1.92L124.404,136.449z M88.428,138.369c0.198-0.198,0.589-0.384,0.589-0.582c-0.232-0.434-0.431-0.885-0.589-1.349
	l-0.779,0.768c0.388,0.208,0.577,0.779,0.755,1.163H88.428z M126.361,134.529l-1.944,1.92L126.361,134.529z M495.945,132.608
	c0.529-0.162,1.051-0.356,1.553-0.581c-0.601-0.344-1.131-0.802-1.553-1.35V132.608z M192.479,131.665
	c-0.398-0.308-0.87-0.508-1.368-0.582c-0.197,0-0.388,0.384-0.589,0.582c0.432,0.188,0.826,0.447,1.167,0.768L192.479,131.665z
	 M111.726,230.623c-0.202,0.197-0.589,0.384-0.589,0.582c0.229,0.434,0.427,0.885,0.589,1.35l0.775-0.769
	C112.315,231.356,112.05,230.962,111.726,230.623z M471.515,230.623c-0.201,0.197-0.588,0.384-0.588,0.582
	c0.229,0.434,0.426,0.885,0.588,1.35l0.774-0.769c-0.16-0.424-0.398-0.817-0.698-1.163H471.515L471.515,230.623z M112.734,130.688
	c-0.545,0.108-1.07,0.304-1.554,0.582c-0.198,0,0.202,0.768,0.387,1.152c0.393-0.384,0.779-0.581,1.167-0.965V130.688z
	 M495.912,130.688c-0.166-0.523-0.358-1.037-0.588-1.536c-0.349,0.597-0.811,1.119-1.368,1.536H495.912z M114.691,128.769
	l-1.944,1.92L114.691,128.769z M116.632,126.848l-1.941,1.92L116.632,126.848z M120.518,121.088l-1.94,1.92L120.518,121.088z
	 M99.123,121.088c-0.55,0.108-1.075,0.305-1.559,0.582c-0.196,0,0.202,0.768,0.392,1.152c0.388-0.384,0.774-0.581,1.167-0.965
	V121.088z M489.092,263.331c-0.197,0.197-0.589,0.384-0.589,0.581c0.233,0.435,0.432,0.886,0.589,1.35l0.778-0.769
	C489.682,264.064,489.42,263.67,489.092,263.331z M209.012,119.157c-0.313,0.392-0.514,0.857-0.589,1.35
	c0,0.198,0.391,0.384,0.589,0.582c0.19-0.426,0.455-0.815,0.779-1.152C209.601,119.541,209.213,119.343,209.012,119.157z
	 M76.189,171.614c0.233,0.434,0.432,0.885,0.589,1.35c0.202-0.197,0.589-0.384,0.589-0.582c-0.229-0.434-0.427-0.885-0.589-1.35
	C76.556,171.23,76.189,171.428,76.189,171.614z M44.665,162.387l0.778,0.768c0.324-0.336,0.585-0.726,0.774-1.152l-0.588-0.582
	C45.412,161.832,45.076,162.167,44.665,162.387z M74.813,176.804c0.202-0.197,0.589-0.384,0.589-0.582
	c-0.232-0.434-0.427-0.885-0.589-1.35l-0.777,0.768c0.379,0.208,0.58,0.779,0.767,1.163h0.011V176.804z M104.95,159.512l1.945-1.92
	L104.95,159.512z M81.632,147.98c-0.55,0.108-1.071,0.305-1.559,0.582c-0.196,0,0.202,0.768,0.392,1.152
	c0.388-0.384,0.774-0.581,1.167-0.965V147.98z M69.961,183.53c0.198,0.197,0.388,0.582,0.585,0.582
	c0.442-0.229,0.896-0.423,1.368-0.582l-0.778-0.768c-0.328,0.347-0.736,0.61-1.186,0.768H69.961z M81.632,185.45l0.774,0.768
	c0.324-0.336,0.59-0.727,0.779-1.152l-0.589-0.582c-0.221,0.403-0.565,0.732-0.977,0.943L81.632,185.45z M198.341,142.209
	c-0.549,0.108-1.071,0.305-1.553,0.582c-0.202,0,0.196,0.768,0.387,1.152c0.387-0.384,0.773-0.582,1.166-0.966V142.209z
	 M118.597,142.209c-0.546,0.108-1.072,0.305-1.554,0.582c-0.198,0,0.201,0.768,0.387,1.152c0.391-0.384,0.779-0.582,1.167-0.966
	V142.209z M85.531,142.209l-1.945,1.92L85.531,142.209z M198.341,140.289v1.92l1.94-1.92H198.341z M118.597,142.209l1.945-1.92
	L118.597,142.209z M79.731,190.256c-0.546,0.108-1.071,0.305-1.554,0.582c-0.198,0,0.202,0.768,0.387,1.152
	c0.393-0.384,0.779-0.582,1.167-0.966V190.256z M64.565,194.645c0.209,0.447,0.383,0.909,0.522,1.382
	c0.197-0.197,0.585-0.384,0.585-0.582c-0.229-0.43-0.427-0.878-0.585-1.338c-0.202,0.187-0.589,0.384-0.589,0.571L64.565,194.645z
	 M85.574,141.222l0.775,0.768c0.328-0.336,0.589-0.727,0.779-1.152l-0.589-0.581c-0.229,0.432-0.589,0.781-1.032,0.999
	L85.574,141.222z M102.041,393.975c-0.197,0.197-0.584,0.385-0.584,0.582c0.229,0.435,0.427,0.886,0.584,1.351l0.778-0.77
	C102.629,394.708,102.369,394.315,102.041,393.975z M104.95,93.263l0.779,0.768c0.324-0.337,0.589-0.727,0.778-1.152l-0.588-0.582
	C105.702,92.707,105.365,93.043,104.95,93.263z M102.041,397.815c-0.309,0.393-0.515,0.856-0.584,1.35
	c0,0.197,0.387,0.385,0.584,0.582c0.189-0.426,0.455-0.816,0.778-1.152C102.618,398.2,102.23,398.012,102.041,397.815z
	 M479.375,84.562c-0.309,0.392-0.515,0.857-0.589,1.35c0,0.198,0.392,0.384,0.589,0.582c0.189-0.425,0.455-0.815,0.778-1.152
	C479.953,84.946,479.565,84.748,479.375,84.562z M147.75,402.622c0.396,0.307,0.865,0.508,1.363,0.581
	c0.202,0,0.388-0.384,0.59-0.581c-0.432-0.188-0.826-0.447-1.166-0.77L147.75,402.622z M113.714,403.587l-0.779,0.767
	c0.34,0.321,0.735,0.581,1.167,0.77l0.589-0.581C114.275,404.327,113.936,403.995,113.714,403.587z M580.515,405.506
	c0.313-0.392,0.515-0.855,0.59-1.35c0-0.197-0.388-0.384-0.59-0.581c-0.189,0.425-0.45,0.814-0.774,1.15
	C580.127,404.925,580.342,405.309,580.515,405.506z M113.714,86.482c0.309-0.392,0.514-0.857,0.585-1.35
	c0-0.198-0.387-0.384-0.585-0.582c-0.189,0.426-0.455,0.815-0.779,1.152C113.323,85.9,113.513,86.284,113.714,86.482z
	 M116.632,409.346c-0.107-0.539-0.31-1.059-0.589-1.535c0-0.196-0.775,0.197-1.167,0.385c0.392,0.384,0.589,0.769,0.979,1.15
	H116.632z M116.632,409.346l1.945,1.921c-0.551-0.732-1.21-1.38-1.957-1.921H116.632z M151.648,411.267
	c-0.11-0.54-0.309-1.06-0.589-1.535c0-0.197-0.779,0.196-1.167,0.384c0.388,0.384,0.589,0.769,0.978,1.151H151.648z
	 M111.192,411.848c0.229,0.435,0.428,0.887,0.589,1.351c0.197-0.197,0.59-0.384,0.59-0.581c-0.233-0.436-0.432-0.886-0.59-1.351
	c-0.214,0.188-0.601,0.385-0.601,0.581H111.192z M118.589,411.267l1.94,1.921c-0.553-0.733-1.217-1.383-1.965-1.921H118.589z
	 M153.601,413.188l-1.945-1.921c0.736,0.541,1.385,1.189,1.922,1.921H153.601z M153.601,413.188l1.941,1.922
	c-0.554-0.735-1.213-1.384-1.965-1.922H153.601z M156.522,415.109l-0.777,0.767c0.339,0.32,0.734,0.581,1.166,0.768l0.589-0.581
	c-0.423-0.212-0.771-0.544-1-0.952L156.522,415.109L156.522,415.109z M125.429,417.028l-0.779,0.768
	c0.34,0.32,0.735,0.58,1.167,0.769l0.589-0.581c-0.432-0.204-0.786-0.534-1.021-0.944L125.429,417.028z M137.044,119.157
	c-0.313,0.392-0.515,0.857-0.589,1.35c0,0.198,0.388,0.384,0.589,0.582c0.189-0.426,0.451-0.815,0.778-1.152
	C137.632,119.541,137.265,119.343,137.044,119.157z M120.51,120.123l0.775,0.768c0.323-0.337,0.589-0.727,0.778-1.152l-0.589-0.582
	c-0.218,0.404-0.55,0.737-0.957,0.955L120.51,120.123z M483.261,284.43c-0.31,0.391-0.515,0.856-0.585,1.35
	c0,0.197,0.388,0.383,0.585,0.58c0.188-0.425,0.455-0.814,0.778-1.151C483.851,284.813,483.463,284.616,483.261,284.43z
	 M99.123,121.077l1.94-1.92L99.123,121.077z M103.008,117.237l-1.945,1.92L103.008,117.237z M225.549,111.477
	c-0.55,0.108-1.076,0.305-1.559,0.581c-0.197,0,0.202,0.769,0.393,1.152c0.387-0.384,0.773-0.582,1.167-0.966
	c0-0.198,0-0.581,0-0.779L225.549,111.477L225.549,111.477z M225.549,110.511l0.773,0.768c0.324-0.336,0.59-0.727,0.779-1.152
	l-0.589-0.582c-0.218,0.406-0.558,0.738-0.964,0.955V110.511z M238.196,105.705c0.313-0.392,0.515-0.857,0.59-1.35
	c0-0.197-0.392-0.384-0.59-0.582c-0.188,0.426-0.455,0.815-0.778,1.152C237.796,105.124,237.996,105.507,238.196,105.705z
	 M474.9,102.414c0.233,0.434,0.431,0.885,0.59,1.349c0.201-0.197,0.588-0.384,0.588-0.581c-0.229-0.434-0.426-0.885-0.588-1.349
	c-0.198,0.208-0.646,0.405-0.646,0.603L474.9,102.414z M215.819,103.763l1.941-1.92L215.819,103.763z M141.906,101.843
	c-0.546,0.108-1.07,0.305-1.554,0.582c-0.202,0,0.202,0.769,0.387,1.152c0.393-0.383,0.779-0.581,1.167-0.965
	c0-0.175,0-0.57,0-0.757V101.843z M217.764,100.943l0.775,0.768c0.323-0.336,0.589-0.726,0.777-1.152l-0.588-0.582
	C218.512,100.388,218.176,100.724,217.764,100.943z M134.134,380.524c-0.11-0.541-0.31-1.062-0.589-1.537
	c0-0.197-0.775,0.196-1.167,0.385c0.392,0.384,0.589,0.768,0.977,1.152H134.134L134.134,380.524z M143.863,99.934l-1.944,1.92
	L143.863,99.934z M137.044,384.364l-0.779,0.768c0.34,0.32,0.735,0.58,1.167,0.769l0.589-0.581
	C137.605,385.104,137.265,384.771,137.044,384.364z M138.985,388.204c-0.197,0.197-0.585,0.385-0.585,0.582
	c0.229,0.434,0.428,0.885,0.585,1.35l0.778-0.769c-0.186-0.429-0.442-0.822-0.767-1.163H138.985z M128.294,167.192l1.94-1.92
	L128.294,167.192z M131.625,163.539c-0.349,0.597-0.812,1.119-1.364,1.536h1.941c-0.229-0.496-0.432-1.005-0.598-1.525
	L131.625,163.539z"/>
</svg>
