<?xml version="1.0" standalone="no"?>
<!DOCTYPE svg PUBLIC "-//W3C//DTD SVG 20010904//EN"
 "http://www.w3.org/TR/2001/REC-SVG-20010904/DTD/svg10.dtd">
<svg version="1.0" xmlns="http://www.w3.org/2000/svg"
 width="1905.000000pt" height="885.000000pt" viewBox="0 0 1905.000000 885.000000"
 preserveAspectRatio="xMidYMid meet">
<metadata>
Created by potrace 1.15, written by Peter Selinger 2001-2017
</metadata>
<g transform="translate(0.000000,885.000000) scale(0.100000,-0.100000)"
fill="#000000" stroke="none">
<path d="M10754 5646 l-34 -34 0 -1266 0 -1266 1875 0 1875 0 0 -295 c0 -190
4 -295 10 -295 7 0 10 162 10 465 0 523 -4 496 76 558 l47 37 376 0 376 0 49
-35 c85 -60 88 -68 84 -235 -1 -80 -2 -191 0 -247 2 -91 4 -103 20 -102 10 0
12 3 5 6 -9 3 -13 29 -13 78 0 69 1 74 23 77 27 4 29 31 2 37 -27 5 -35 19
-35 62 0 39 14 59 42 59 10 0 18 7 18 15 0 9 -9 15 -24 15 -23 0 -24 3 -27 83
-4 74 -7 88 -33 122 -16 21 -41 44 -55 53 -42 24 -80 124 -81 210 0 40 -15 35
-23 -8 l-6 -30 -320 0 -320 0 -7 37 c-4 21 -3 63 2 95 6 32 7 58 2 58 -7 0 -8
-3 -31 -167 -8 -56 -22 -116 -31 -133 -9 -18 -13 -36 -10 -41 3 -5 1 -9 -5 -9
-19 0 -82 -63 -102 -101 -14 -28 -19 -59 -19 -119 l0 -80 -923 0 c-916 0 -923
1 -924 20 -1 11 2 18 7 15 6 -3 7 1 4 9 -5 14 -8 14 -21 1 -22 -23 -27 -18 -9
10 9 14 12 25 7 25 -6 0 -15 -8 -20 -17 -8 -14 -9 -11 -5 13 4 20 1 34 -7 39
-8 6 -10 4 -4 -5 6 -9 4 -11 -4 -6 -7 5 -10 14 -7 22 3 8 0 14 -7 14 -8 0 -7
4 3 11 12 8 11 9 -6 5 -15 -5 -24 0 -34 19 -7 14 -17 25 -22 25 -5 0 -6 5 -2
11 4 8 9 7 15 -2 7 -12 10 -12 21 0 10 11 10 12 0 7 -7 -4 -15 -1 -18 9 -5 12
-9 13 -20 4 -12 -10 -13 -8 -8 6 5 13 4 16 -4 11 -9 -5 -9 0 -2 21 9 26 9 27
-5 9 -15 -19 -15 -19 -15 2 0 12 -4 22 -10 22 -5 0 -9 10 -7 23 1 17 -2 21
-18 18 -20 -3 -20 -3 0 20 11 13 13 18 5 12 -20 -19 -28 -16 -26 9 0 11 -6 23
-14 25 -13 4 -13 3 0 -7 13 -10 12 -11 -3 -6 -10 3 -21 6 -25 6 -3 0 3 7 14
16 16 13 16 15 2 10 -10 -3 -20 0 -24 6 -4 7 -3 8 4 4 7 -4 12 -2 12 3 0 6 -5
11 -11 11 -6 0 -8 7 -5 16 3 8 2 12 -3 9 -5 -3 -12 -1 -15 4 -4 5 -2 12 4 16
5 3 10 11 10 16 0 6 -7 3 -16 -5 -14 -14 -34 -14 -34 0 0 3 4 3 9 0 5 -3 12 1
15 10 4 10 2 13 -6 8 -7 -5 -9 -2 -5 9 4 12 2 14 -11 10 -9 -3 -14 -3 -10 1 3
4 -2 16 -13 27 -11 11 -16 25 -12 36 6 16 4 16 -9 5 -14 -11 -16 -10 -11 9 5
19 3 21 -13 15 -10 -4 -15 -4 -12 0 4 4 3 15 -3 25 -8 15 -6 17 8 12 15 -6 16
-5 3 9 -8 9 -19 15 -25 15 -5 -1 -10 8 -9 20 0 14 -7 25 -18 29 -10 3 -16 9
-13 14 3 5 1 11 -5 15 -5 3 -10 1 -10 -6 0 -7 -6 -4 -14 6 -8 11 -11 26 -8 34
3 9 1 12 -6 7 -7 -4 -9 2 -6 20 3 17 1 23 -7 19 -8 -5 -9 0 -5 16 6 21 5 21
-4 6 -6 -9 -16 -15 -21 -11 -6 3 -5 12 3 22 11 13 11 14 -1 7 -11 -6 -13 -4
-8 8 3 9 1 19 -5 23 -7 5 -8 2 -3 -7 5 -8 -1 -6 -13 5 -12 10 -18 24 -15 30
11 17 12 37 2 30 -5 -3 -9 0 -9 6 0 7 -7 10 -15 7 -8 -4 -17 -1 -21 5 -4 6 -3
8 3 5 6 -4 14 0 17 9 4 10 2 13 -6 8 -8 -5 -9 -1 -4 11 6 18 6 18 -15 -1 -22
-19 -22 -19 -11 2 12 23 7 33 -28 57 -13 9 -19 17 -13 17 7 0 15 -4 18 -10 3
-5 12 -10 18 -10 7 0 -1 9 -16 19 -20 13 -25 20 -15 24 10 4 10 6 0 6 -14 1
-42 25 -42 36 0 3 6 3 13 -1 8 -5 8 -2 -2 9 -7 9 -20 17 -28 17 -8 0 -11 5 -8
10 3 6 1 10 -5 10 -6 0 -8 5 -5 10 4 6 11 7 17 4 7 -4 8 -2 4 5 -4 6 -10 9
-14 7 -14 -8 -43 22 -48 49 -3 17 -1 24 6 20 6 -3 7 0 4 9 -5 14 -8 14 -21 1
-22 -23 -27 -18 -9 10 9 14 12 25 7 25 -6 0 -15 -8 -20 -17 -8 -14 -9 -11 -5
13 4 20 1 34 -7 39 -8 6 -10 4 -4 -5 6 -9 4 -11 -4 -6 -7 5 -10 15 -7 23 5 11
2 14 -11 9 -15 -5 -14 -3 2 10 20 16 19 16 -4 9 -19 -6 -23 -4 -18 9 3 8 1 18
-5 22 -7 5 -8 2 -3 -7 4 -8 -1 -5 -12 6 -11 11 -18 24 -15 29 2 4 8 2 13 -5 7
-12 10 -12 21 0 10 11 10 12 0 7 -7 -4 -15 -1 -18 9 -5 12 -9 13 -20 4 -12
-10 -13 -8 -8 6 5 13 4 16 -4 11 -9 -5 -9 0 -2 21 9 26 9 27 -5 9 -15 -19 -15
-19 -15 2 0 12 -5 22 -11 22 -6 0 -8 10 -5 23 3 12 3 17 0 10 -4 -10 -8 -10
-19 0 -11 10 -10 15 3 32 9 11 10 14 2 8 -20 -18 -29 -16 -25 6 3 17 -19 45
-38 48 -5 1 -12 5 -15 9 -4 4 -1 4 6 0 6 -4 12 -2 12 3 0 6 -5 11 -11 11 -6 0
-9 7 -5 15 3 8 0 14 -7 12 -7 -1 -11 4 -9 12 2 8 -3 11 -12 8 -9 -4 -18 -1
-22 5 -4 6 -3 8 3 5 6 -4 14 0 17 9 3 8 2 13 -2 11 -4 -3 -13 1 -20 9 -7 8
-10 14 -7 14 3 0 -4 9 -15 20 -11 11 -17 27 -14 37 5 15 3 15 -11 -2 -16 -19
-16 -19 -9 9 6 26 5 28 -17 21 -24 -7 -24 -7 -4 10 11 9 15 14 9 11 -13 -7
-27 21 -18 35 3 5 0 8 -7 7 -7 -2 -15 6 -17 17 -2 11 -11 26 -20 33 -9 6 -12
12 -8 12 5 0 3 7 -4 15 -6 8 -9 19 -6 24 4 5 1 13 -5 17 -8 4 -9 3 -5 -4 4 -7
2 -12 -5 -12 -10 0 -10 -3 -1 -12 7 -7 12 -16 12 -22 0 -5 -6 -1 -14 9 -8 11
-11 26 -8 34 3 9 1 12 -6 7 -7 -4 -9 2 -6 20 3 17 1 23 -7 19 -8 -5 -9 0 -5
16 6 21 5 21 -4 6 -6 -9 -16 -15 -21 -11 -6 3 -5 12 3 22 11 13 11 14 -1 7
-11 -6 -13 -4 -8 8 3 9 1 19 -5 23 -7 5 -8 2 -3 -7 5 -8 -1 -6 -13 5 -12 10
-19 22 -17 27 3 4 -3 10 -12 12 -10 3 816 5 1835 6 l1852 1 0 -772 0 -773 85
0 85 0 0 830 c0 771 -2 832 -18 851 -9 12 -27 27 -39 33 -16 8 -596 11 -2128
11 l-2107 0 -34 -34z"/>
<path d="M14622 2788 c-7 -73 -12 -166 -12 -206 0 -64 3 -76 25 -97 17 -18 35
-25 62 -25 61 0 364 21 411 28 l44 7 -86 70 c-76 63 -83 71 -63 77 20 5 20 6
-5 7 -39 1 -56 36 -31 64 l18 22 -25 -20 c-14 -11 -27 -21 -30 -23 -2 -2 1 -6
8 -11 6 -4 -5 -8 -26 -8 -62 -2 -84 38 -39 71 l22 17 -22 -11 c-17 -8 -23 -8
-23 0 0 6 -7 4 -16 -4 -29 -29 -74 -13 -74 26 0 21 32 40 57 33 10 -3 5 1 -12
9 -16 8 -40 12 -53 9 -43 -10 -72 44 -34 66 9 6 12 11 5 11 -6 0 -15 -5 -18
-10 -4 -6 -17 -3 -35 10 -15 11 -30 20 -32 20 -3 0 -10 -60 -16 -132z"/>
<path d="M15500 2548 c0 -72 -4 -90 -23 -119 -46 -69 -47 -69 -480 -69 -305 0
-395 3 -420 14 -37 15 -87 69 -87 93 0 9 -3 13 -7 9 -13 -12 30 -76 65 -98 20
-12 51 -25 71 -29 33 -6 34 -7 7 -8 -21 -1 -26 -4 -19 -13 19 -24 33 -84 43
-186 11 -119 19 -139 65 -158 80 -33 379 -41 524 -12 80 15 98 38 106 134 14
166 36 236 88 269 56 36 71 69 78 158 3 45 2 86 -3 92 -4 5 -8 -29 -8 -77z
m-192 -489 c7 -58 -47 -77 -243 -86 -147 -6 -296 7 -343 29 -15 8 -28 23 -30
36 -8 54 -16 53 310 50 l303 -3 3 -26z"/>
</g>
</svg>
