<?xml version="1.0" standalone="no"?>
<!DOCTYPE svg PUBLIC "-//W3C//DTD SVG 20010904//EN"
 "http://www.w3.org/TR/2001/REC-SVG-20010904/DTD/svg10.dtd">
<svg version="1.0" xmlns="http://www.w3.org/2000/svg"
 width="1903.000000pt" height="951.000000pt" viewBox="0 0 1903.000000 951.000000"
 preserveAspectRatio="xMidYMid meet">
<metadata>
Created by potrace 1.15, written by Peter Selinger 2001-2017
</metadata>
<g transform="translate(0.000000,951.000000) scale(0.100000,-0.100000)"
fill="#000000" stroke="none">
<path d="M0 8710 c0 -479 4 -800 9 -800 40 0 51 28 29 75 -14 31 -8 38 25 26
18 -7 24 -15 20 -29 -6 -24 23 -33 75 -25 31 5 35 4 25 -8 -6 -8 -25 -22 -42
-32 -30 -17 -30 -17 -42 5 l-13 23 -6 -25 c-5 -21 -12 -25 -43 -24 -31 1 -37
-2 -37 -19 0 -18 4 -19 53 -13 46 6 50 5 32 -7 -11 -8 -35 -20 -52 -28 l-33
-14 0 -2182 0 -2183 7455 0 7455 0 1 -912 c0 -565 5 -996 12 -1131 11 -205 13
-220 34 -236 33 -27 267 -36 933 -35 626 0 840 9 867 37 28 27 31 178 32 1265
l1 1012 1120 0 1120 0 0 3030 0 3030 -9515 0 -9515 0 0 -800z m670 40 l0 -170
-270 0 -270 0 0 170 0 170 270 0 270 0 0 -170z m9499 -127 c9 -17 10 -17 16 0
9 23 52 22 65 -2 5 -11 10 -34 10 -51 0 -44 -17 -70 -44 -70 -26 0 -36 16 -37
63 0 18 -3 26 -6 20 -2 -7 -13 -13 -24 -13 -15 0 -19 -7 -19 -35 0 -19 -4 -35
-10 -35 -6 0 -10 30 -10 70 0 68 1 70 25 70 13 0 28 -8 34 -17z m-9849 -292
c20 -16 22 -22 12 -34 -9 -10 -10 -17 -2 -22 18 -11 11 -24 -21 -40 -20 -11
-34 -13 -42 -7 -7 6 -23 12 -37 14 -15 2 -24 9 -22 18 2 8 -3 19 -10 25 -7 5
-19 22 -25 38 l-13 27 68 0 c50 0 73 -5 92 -19z m6426 -50 c-4 -48 -2 -72 6
-77 12 -7 165 -19 393 -29 72 -4 177 -10 235 -14 58 -5 260 -9 450 -10 190 -2
347 -4 349 -7 2 -2 2 -6 0 -8 -2 -2 -200 -6 -439 -10 -789 -11 -1000 -18
-1000 -33 0 -15 16 -17 25 -3 4 6 29 8 58 5 29 -2 81 -7 116 -10 35 -2 66 -7
69 -10 5 -5 -186 -9 -235 -6 -11 1 -24 -3 -28 -8 -4 -8 106 -11 362 -13 202
-1 404 -2 448 -2 44 -1 200 -2 348 -3 171 -2 267 -7 267 -13 0 -7 -212 -10
-627 -9 -819 2 -763 4 -763 -21 0 -27 -28 -25 -33 3 -4 18 -5 17 -6 -6 -1 -19
7 -35 22 -48 l22 -18 -22 -1 c-27 0 -28 -6 -13 -166 14 -154 29 -222 49 -226
16 -4 95 6 139 17 12 3 22 2 22 -2 0 -5 -28 -15 -62 -23 -56 -14 -63 -18 -63
-40 0 -20 -4 -25 -23 -22 -34 3 -23 -18 24 -44 44 -26 49 -54 13 -83 -17 -14
-20 -23 -14 -50 5 -23 11 -31 22 -27 8 3 25 6 38 6 15 0 25 7 28 22 5 18 8 19
21 8 21 -16 20 -29 -1 -36 -56 -19 -83 -36 -83 -54 0 -12 7 -20 18 -20 12 0
14 -2 4 -8 -15 -10 -10 -29 32 -125 9 -21 16 -45 16 -53 0 -12 6 -15 23 -11
12 3 38 8 57 12 34 6 34 6 10 -7 -18 -10 -24 -21 -22 -37 3 -16 -2 -24 -17
-28 -26 -7 -26 -5 4 -53 14 -22 24 -43 23 -47 -1 -5 3 -23 9 -40 17 -46 60
-83 96 -83 l31 0 -28 -29 c-26 -28 -27 -30 -12 -62 23 -53 48 -91 79 -122 15
-15 27 -32 27 -38 0 -16 49 -99 87 -147 26 -31 33 -48 27 -64 -6 -22 -6 -22
19 -5 15 9 33 17 42 17 17 0 20 -16 5 -25 -5 -3 -8 -25 -6 -48 3 -45 24 -60
51 -37 8 6 19 9 25 5 18 -11 -19 -31 -70 -40 -26 -4 -50 -16 -58 -26 -12 -18
-59 -28 -48 -11 2 4 1 14 -3 21 -11 17 -74 5 -102 -20 -43 -37 -37 -18 6 24
49 46 56 62 24 54 -14 -4 -19 -2 -15 8 4 11 -44 101 -63 115 -3 3 -19 20 -34
38 -15 19 -27 29 -27 23 0 -5 6 -16 13 -23 20 -21 67 -97 67 -108 0 -26 -24
-4 -68 61 -69 102 -132 202 -139 219 -4 8 -17 29 -28 47 -23 32 -119 225 -150
300 -16 38 -21 42 -44 36 l-26 -6 19 22 c20 22 20 22 -4 94 -14 40 -30 81 -37
92 -7 11 -13 29 -13 41 0 11 -3 24 -7 28 -7 7 -16 36 -44 151 -38 157 -98 647
-85 699 5 22 3 23 -62 29 -37 4 -104 7 -149 7 -49 0 -83 4 -83 10 0 6 59 10
156 10 101 0 153 3 149 10 -3 6 -36 10 -72 10 -83 0 -78 10 5 12 44 1 62 5 62
15 0 10 -33 13 -155 13 l-155 0 -12 25 c-6 14 -9 27 -7 30 3 2 76 7 162 11 87
4 160 11 163 16 3 5 8 42 11 82 l6 74 105 1 105 2 -7 -70z m3049 47 c3 -13 9
-77 14 -143 l8 -120 2 137 c0 75 5 139 10 142 5 4 11 3 13 -1 1 -5 23 -21 47
-38 57 -38 68 -63 52 -116 -17 -57 -8 -58 24 -3 25 42 29 45 40 31 7 -9 17
-17 23 -17 13 0 28 -52 37 -134 6 -49 4 -58 -8 -53 -8 3 -26 -1 -40 -8 -14 -7
-28 -11 -31 -7 -3 3 -6 -4 -6 -16 0 -17 8 -22 38 -27 20 -3 49 -8 64 -10 15
-2 29 -1 32 3 3 5 -2 41 -10 81 -8 40 -14 80 -12 89 6 31 21 18 38 -32 15 -46
19 -50 61 -60 41 -10 44 -13 44 -43 1 -18 4 -35 8 -39 3 -4 -3 -20 -15 -36
-16 -23 -18 -32 -8 -38 9 -6 8 -13 -5 -34 -17 -25 -26 -30 -53 -27 -7 1 -16
-8 -22 -21 -7 -20 -9 -17 -9 18 -1 37 -4 42 -39 57 -55 24 -102 20 -102 -9 0
-8 -8 -14 -17 -15 -13 0 -11 -3 7 -10 l25 -10 -25 -19 -25 -19 28 -10 c24 -9
26 -14 17 -31 -6 -11 -20 -20 -31 -20 -16 0 -18 -5 -13 -24 5 -20 2 -25 -18
-28 -17 -2 -24 -11 -28 -33 -8 -43 0 -85 16 -85 47 0 -4 -77 -73 -111 -25 -12
-56 -32 -71 -45 -27 -26 -43 -25 -22 0 10 13 8 20 -9 42 -12 15 -21 34 -21 44
0 27 -37 55 -54 41 -22 -19 -44 -2 -51 40 -6 36 -18 49 -28 32 -2 -5 -2 -2 -1
4 2 7 -17 26 -41 43 -25 17 -45 28 -45 24 0 -3 -7 -1 -15 6 -8 7 -21 10 -29 7
-10 -4 -14 3 -13 29 1 35 -18 59 -36 47 -5 -3 -6 3 -3 14 5 15 0 23 -19 31
-14 6 -25 17 -25 24 0 7 -13 22 -30 33 -36 24 -40 33 -47 111 -7 72 1 123 22
150 15 18 16 18 13 -6 -1 -14 1 -31 6 -38 4 -7 11 -43 15 -80 l7 -67 8 60 c7
57 37 117 51 103 4 -3 -1 -20 -9 -37 -20 -38 -20 -43 2 -39 14 2 16 -3 14 -29
-4 -43 10 -48 36 -13 16 21 32 30 59 32 39 3 60 28 23 28 -20 0 -22 4 -17 48
8 85 34 135 95 188 31 27 63 57 72 66 9 10 31 17 57 17 36 1 43 -2 48 -21z
m2935 3 c0 -10 11 -26 25 -35 32 -21 32 -34 -2 -48 l-28 -11 35 -8 c19 -5 49
-8 65 -8 74 2 96 -2 117 -23 14 -14 33 -22 55 -21 43 1 51 -13 23 -42 -21 -22
-32 -25 -124 -27 l-101 -3 83 -9 c95 -10 109 -26 25 -27 -106 -2 -115 -17 -10
-18 53 -1 97 -5 97 -9 0 -5 -52 -12 -116 -15 -120 -7 -139 -11 -114 -27 11 -7
6 -10 -20 -11 -19 -1 -26 -3 -15 -6 11 -2 30 -6 43 -9 29 -6 28 -22 -3 -36
-14 -6 -25 -19 -25 -29 0 -10 -5 -21 -11 -25 -6 -3 -8 -16 -5 -27 3 -12 0 -27
-6 -34 -15 -19 7 -17 37 3 24 15 25 15 25 -4 0 -20 -25 -36 -41 -26 -5 3 -9 1
-9 -4 0 -5 19 -13 43 -16 65 -10 81 -26 26 -26 -54 0 -62 -6 -48 -32 8 -15 7
-24 -7 -39 -10 -11 -23 -35 -30 -54 -9 -28 -9 -36 5 -50 15 -14 14 -16 -7 -22
-17 -4 -22 -11 -19 -24 3 -11 -2 -23 -11 -28 -15 -8 -15 -10 -2 -15 34 -12
129 -35 185 -45 224 -41 399 -80 391 -88 -2 -2 -28 1 -57 7 -120 25 -209 41
-294 55 -49 8 -114 19 -144 25 -75 14 -90 14 -66 -3 12 -10 14 -16 7 -21 -7
-4 -12 -12 -12 -19 0 -8 3 -8 11 0 9 9 18 8 35 -4 37 -24 29 -32 -29 -30 -48
2 -53 1 -55 -19 -3 -36 27 -94 52 -104 17 -6 26 -20 31 -47 7 -37 30 -73 47
-73 16 0 7 38 -23 99 -27 53 -30 67 -20 87 l11 24 37 -23 c44 -28 51 -43 24
-50 -19 -5 -19 -7 -5 -52 8 -27 14 -58 14 -71 0 -17 10 -26 43 -38 l42 -15
-40 5 c-22 3 -57 12 -78 20 -20 8 -48 14 -61 14 -12 0 -26 3 -30 8 -4 4 -20 7
-35 7 -20 0 -27 -4 -24 -15 2 -8 -12 -33 -32 -55 -39 -44 -41 -66 -7 -75 29
-6 25 -26 -5 -22 -13 1 -23 -2 -23 -8 0 -5 6 -10 13 -10 9 0 8 -3 -2 -9 -16
-10 -5 -35 13 -28 6 2 12 -6 12 -18 2 -21 -1 -22 -29 -14 -33 9 -52 3 -21 -7
10 -3 56 -24 102 -45 77 -36 85 -38 105 -24 12 8 29 15 38 15 20 0 69 -54 69
-76 0 -12 -5 -12 -34 0 -34 14 -35 14 -38 -12 -2 -19 -10 -28 -25 -30 -20 -3
-23 1 -23 31 0 24 -5 36 -17 40 -10 3 -65 24 -123 46 -117 46 -130 49 -107 24
13 -15 13 -21 3 -35 -7 -10 -23 -18 -36 -18 -17 0 -21 -4 -15 -17 4 -10 8 -24
9 -31 2 -14 50 -42 71 -42 7 0 18 -7 25 -15 17 -20 -3 -20 -38 0 -24 14 -32
14 -67 2 -27 -9 -41 -21 -43 -35 -2 -11 -10 -22 -19 -24 -19 -4 74 -77 125
-99 17 -8 32 -17 32 -21 0 -12 -6 -10 -54 17 -56 31 -63 31 -92 0 -13 -14 -34
-25 -47 -25 -24 0 -37 -16 -37 -46 0 -23 -63 -105 -77 -100 -31 12 -9 -17 42
-55 31 -23 54 -43 52 -45 -2 -2 -24 6 -48 19 -61 33 -100 42 -93 22 4 -8 1
-15 -4 -15 -6 0 -14 -20 -18 -45 -3 -25 -11 -48 -16 -51 -5 -3 -13 -17 -18
-30 -5 -13 -16 -24 -25 -24 -17 0 -21 -25 -5 -35 6 -3 10 -12 9 -18 0 -9 -2
-9 -6 1 -4 11 -43 18 -43 7 0 -2 23 -26 52 -52 28 -26 64 -60 80 -76 32 -31
48 -28 48 8 0 35 17 40 24 8 13 -62 -1 -296 -17 -290 -8 2 -13 40 -14 116 -1
62 -3 114 -5 115 -18 15 -130 96 -156 114 -34 23 -52 22 -52 -3 0 -8 -12 -20
-27 -27 -45 -22 -48 -82 -13 -251 5 -27 12 -53 15 -58 17 -26 -22 -3 -66 40
-54 53 -86 58 -113 16 -14 -21 -66 -41 -66 -25 0 4 -12 5 -26 2 -18 -3 -23 -9
-19 -21 4 -9 9 -33 12 -53 3 -21 12 -43 19 -49 8 -6 14 -18 14 -25 0 -8 7 -14
16 -14 11 0 14 -6 9 -22 -5 -15 -1 -26 15 -38 14 -11 21 -25 18 -40 -3 -22 -4
-23 -20 -7 -9 9 -26 17 -37 17 -13 0 -52 32 -100 81 -44 45 -77 72 -75 61 4
-12 0 -22 -10 -25 -9 -4 -16 -18 -16 -32 0 -18 -5 -25 -19 -25 -10 0 -24 -7
-31 -15 -8 -9 -16 -12 -19 -6 -12 19 -45 17 -49 -4 -6 -33 -20 -40 -42 -20
-16 14 -21 15 -25 4 -5 -14 40 -113 71 -157 15 -21 15 -22 0 -16 -9 3 -16 10
-16 15 0 16 -40 49 -60 49 -10 0 -24 9 -30 20 -6 11 -17 20 -25 20 -7 0 -15 5
-17 11 -7 20 -38 -3 -38 -30 -1 -25 -1 -26 -16 -6 -11 14 -18 16 -21 8 -3 -7
-11 -13 -19 -13 -8 0 -14 -5 -14 -11 0 -6 7 -9 15 -5 16 6 21 -9 6 -18 -4 -3
-6 -17 -3 -31 2 -15 0 -25 -7 -25 -13 0 -45 31 -55 51 -5 11 -7 11 -12 2 -3
-7 -14 -13 -25 -13 -15 0 -17 -5 -12 -30 4 -25 3 -29 -10 -24 -8 3 -18 12 -21
19 -3 10 -33 -1 -111 -41 -59 -30 -113 -54 -120 -54 -22 0 -26 -16 -11 -51 22
-55 28 -79 19 -79 -5 0 -17 23 -28 50 -12 32 -25 50 -36 50 -27 0 -79 -21 -79
-32 0 -6 -14 -8 -32 -5 -19 2 -47 -2 -66 -11 -26 -13 -37 -14 -52 -5 -15 10
-19 8 -24 -13 -7 -28 -36 -32 -43 -6 -5 23 -51 18 -60 -5 -7 -18 -46 25 -68
76 -21 47 -20 49 31 57 36 5 47 12 55 31 7 20 12 22 28 13 28 -14 44 -13 38 4
-9 24 21 42 44 28 16 -11 27 -7 72 21 28 18 60 36 71 40 12 5 16 13 11 25 -4
9 -9 23 -12 30 -3 6 0 12 7 12 6 0 14 -9 17 -20 8 -28 32 -25 111 15 46 24 73
44 81 62 9 20 15 24 21 14 13 -22 31 -2 23 27 l-6 26 26 -17 c32 -21 42 -9 32
39 -6 33 -5 34 14 22 12 -7 21 -16 21 -20 0 -14 35 -8 67 12 40 24 67 73 54
97 -40 76 -101 203 -97 203 3 0 35 -40 72 -90 37 -49 71 -90 75 -90 4 0 16 11
27 25 11 14 26 24 33 23 7 -2 13 2 14 7 0 6 8 21 17 33 12 17 22 22 36 17 26
-8 62 14 62 38 0 10 -7 29 -16 42 -20 30 -15 32 16 5 13 -11 27 -20 32 -20 5
0 6 9 3 20 -4 12 -2 20 5 20 6 0 20 9 32 20 l21 19 -26 40 c-31 47 -19 64 15
22 29 -37 68 -50 68 -24 0 10 9 27 21 36 l21 18 -35 42 c-31 37 -268 282 -462
477 -38 38 -66 70 -61 70 5 0 97 -87 205 -194 239 -236 368 -356 383 -356 12
0 10 18 -3 26 -8 5 -6 10 5 16 9 5 14 14 10 20 -4 6 3 5 16 -2 14 -7 20 -8 16
-1 -4 6 1 25 10 42 10 20 14 43 10 61 -5 25 -3 29 11 24 9 -4 20 -1 24 6 6 9
12 9 26 -2 74 -54 -275 256 -364 323 -23 18 -43 36 -43 41 0 5 8 2 17 -5 10
-8 22 -17 28 -21 5 -4 32 -26 58 -48 26 -22 58 -45 70 -52 12 -6 27 -17 35
-24 7 -7 34 -30 60 -51 26 -21 49 -41 52 -44 16 -19 153 -109 158 -104 4 4 -4
15 -18 26 l-25 20 28 -7 c22 -5 26 -3 21 10 -3 9 -10 16 -15 16 -5 0 -9 5 -9
11 0 6 9 8 20 4 21 -7 28 10 8 18 -7 3 2 6 20 6 31 1 42 14 22 26 -17 10 -11
25 10 25 13 0 18 5 14 15 -7 18 17 20 34 3 7 -7 12 -8 12 -3 0 11 -119 125
-130 125 -4 0 -20 12 -36 26 l-29 27 35 -21 c88 -54 154 -81 176 -76 28 7 30
16 9 34 -17 14 -20 46 -5 55 6 4 17 1 26 -5 12 -10 18 -8 34 11 20 22 20 23 3
32 -26 14 -53 49 -53 70 0 16 5 18 33 12 29 -5 27 -3 -23 30 -30 20 -76 48
-102 62 -27 14 -48 30 -48 34 0 10 47 -8 70 -27 8 -6 42 -24 75 -39 33 -15 81
-38 107 -51 33 -17 46 -20 42 -10 -3 8 -1 17 5 21 17 10 13 28 -4 21 -17 -6
-21 9 -5 19 15 9 12 25 -4 25 -8 0 -26 14 -40 31 -21 25 -31 30 -52 25 -14 -4
-23 -3 -21 1 3 5 -11 20 -31 33 -67 44 -95 70 -77 70 17 0 40 -9 152 -61 34
-16 70 -29 81 -29 24 0 48 25 32 35 -15 9 -12 25 5 25 8 0 15 5 15 10 0 14
-28 12 -32 -2 -4 -10 -10 -10 -29 -1 -13 6 -18 12 -11 12 31 2 7 28 -40 45
-29 10 -85 34 -125 52 -74 35 -99 42 -88 24 3 -5 1 -10 -4 -10 -6 0 -11 9 -11
20 0 11 -5 20 -12 20 -6 0 -8 3 -5 6 6 7 65 -12 132 -42 37 -16 182 -70 213
-79 16 -5 22 -2 22 9 0 9 1 19 1 24 1 4 -8 12 -20 18 -20 10 -19 12 18 28 37
17 61 49 61 83 0 9 7 24 15 33 14 16 13 18 -12 27 -141 52 -178 64 -243 84
-41 12 -84 25 -95 30 -11 5 -36 13 -55 18 -28 7 -30 9 -10 10 14 0 42 -6 62
-13 32 -11 39 -11 53 3 14 15 16 14 21 -5 6 -24 27 -32 194 -74 81 -20 136
-29 157 -25 45 8 41 22 -4 17 -36 -4 -37 -3 -18 12 11 8 26 16 33 16 10 0 10
5 -2 22 -23 33 -20 57 9 68 14 5 25 15 26 22 0 7 5 4 10 -7 7 -15 8 -10 5 20
-3 22 -2 32 0 23 8 -26 26 -22 22 3 -2 18 -17 25 -88 43 -47 12 -89 24 -95 27
-5 4 -35 10 -65 14 -30 5 -50 10 -44 12 6 2 71 -5 144 -17 160 -24 172 -25
148 -6 -10 7 -18 21 -18 30 0 9 -7 16 -16 16 -12 0 -14 5 -9 18 4 9 10 27 12
39 3 14 10 20 20 16 13 -5 15 1 11 33 -3 27 0 42 10 50 14 10 13 13 -5 23 -12
6 -57 17 -100 25 l-78 15 108 -6 c77 -4 107 -3 107 6 0 6 -9 11 -20 11 -20 0
-19 1 5 27 27 29 31 43 15 43 -5 0 -10 -4 -10 -10 0 -5 -4 -10 -10 -10 -5 0
-10 9 -10 20 0 23 -28 40 -69 40 -37 0 -46 12 -20 28 10 7 19 8 19 3 0 -6 12
-6 30 0 17 6 30 16 30 21 0 6 11 8 25 6 15 -3 25 -1 25 6 0 16 -2 16 -497 22
-262 3 -453 10 -453 15 0 5 165 9 398 9 223 0 403 4 411 9 18 12 -8 19 -84 24
-37 3 -29 4 30 6 44 2 105 6 135 10 88 11 -171 21 -541 22 -253 0 -320 3 -335
14 -25 18 -12 23 86 29 41 3 129 10 195 15 66 5 174 12 240 15 66 4 185 12
264 18 128 10 142 12 125 25 -13 9 -18 23 -15 41 5 39 13 49 22 26 6 -15 8
-12 8 14 l1 32 135 0 c126 0 135 -1 135 -19z m2585 -206 l0 -60 -69 -3 c-38
-2 -74 2 -79 7 -7 7 -4 24 8 53 29 66 33 69 89 66 l51 -3 0 -60z m-11189 18
c9 -21 20 -46 25 -55 12 -25 -3 -30 -84 -31 l-72 -1 -3 62 -3 62 61 0 c60 0
60 0 76 -37z m10229 23 c42 -3 149 -45 140 -54 -3 -3 -83 -4 -178 -3 -176 2
-207 -1 -207 -24 0 -23 -21 -28 -38 -11 -15 15 -14 16 8 17 23 1 23 1 -5 10
-16 5 -69 8 -117 7 -70 -2 -90 0 -105 15 -11 9 -28 17 -38 17 -17 0 -17 -1 -2
-18 10 -10 17 -26 17 -36 0 -15 -8 -16 -72 -11 -66 6 -106 15 -65 15 10 0 17
5 17 10 0 6 -94 10 -263 10 l-263 0 -22 30 -22 30 312 2 c339 3 839 0 903 -6z
m-9379 -10 c5 -12 37 -14 185 -11 179 3 179 3 185 -20 4 -14 17 -26 37 -32 26
-7 33 -14 35 -41 2 -19 -1 -32 -8 -32 -17 0 -70 56 -70 75 0 14 -29 16 -291
14 -159 0 -293 2 -297 5 -18 19 64 33 171 29 17 -1 27 4 27 13 0 18 19 18 26
0z m1069 -26 c0 -13 -38 -15 -280 -15 -254 0 -280 2 -283 17 -3 15 20 16 280
15 244 -2 283 -4 283 -17z m4673 -32 c7 -7 12 -18 12 -26 0 -8 10 -28 22 -45
18 -26 25 -57 36 -157 7 -69 15 -143 18 -166 5 -37 3 -42 -31 -68 -36 -28 -38
-28 -128 -20 -122 10 -277 7 -310 -5 -34 -13 -41 -2 -27 51 22 85 51 127 108
156 47 24 51 28 35 39 -9 7 -25 11 -35 7 -10 -3 -27 -2 -38 1 -48 15 -2 112
47 99 15 -4 23 0 27 13 4 11 18 26 31 33 14 7 25 19 25 27 0 7 7 13 16 13 9 0
27 11 40 25 29 32 61 33 66 3 4 -31 20 -29 36 5 14 29 31 34 50 15z m-6384
-116 c5 -3 47 -5 93 -5 86 1 104 -7 82 -34 -11 -12 -26 -14 -79 -9 -65 7 -65
7 -76 -22 -11 -28 -13 -28 -75 -26 -35 2 -66 4 -69 5 -3 1 -13 0 -23 -1 -11
-1 -21 6 -23 17 -5 17 -15 19 -107 18 -56 -1 -112 3 -125 8 -18 8 -25 8 -31
-2 -6 -8 -31 -13 -70 -14 -42 0 -64 -5 -70 -14 -10 -19 -41 -6 -41 18 0 15 -7
19 -32 18 -18 -1 -25 -3 -15 -6 19 -5 24 -33 6 -33 -7 0 -26 9 -44 20 -32 20
-32 20 -50 0 -22 -24 -40 -26 -31 -4 5 12 1 14 -17 8 -12 -4 -26 -12 -30 -18
-5 -7 -7 -3 -5 9 2 15 -4 21 -27 25 -16 3 -37 2 -45 -3 -14 -8 -79 8 -69 17 5
4 290 18 337 17 18 -1 44 -6 57 -11 17 -7 25 -6 25 2 0 7 16 8 51 4 33 -5 56
-3 65 5 10 8 22 8 45 0 17 -6 34 -9 38 -6 4 2 47 5 96 6 49 2 105 9 125 16 32
11 111 9 134 -5z m11321 -22 c210 -2 287 -5 240 -10 -98 -11 -729 -15 -745 -5
-23 14 17 22 109 19 47 -1 226 -3 396 -4z m-11512 -240 c18 0 37 3 41 7 11 11
79 12 93 1 7 -6 32 -9 55 -8 90 5 128 1 128 -15 0 -10 -10 -15 -29 -15 -16 0
-52 -5 -79 -11 -28 -7 -58 -8 -68 -4 -11 5 -23 7 -29 6 -24 -7 -783 -3 -793 3
-7 4 -12 14 -12 22 0 12 37 14 228 15 125 1 261 1 304 0 44 -1 79 3 83 9 4 7
12 7 25 0 10 -5 34 -10 53 -10z m4832 -140 c24 -36 44 -127 41 -190 -1 -19 2
-43 6 -53 6 -12 4 -22 -6 -32 -21 -22 -29 -19 -76 26 -44 43 -125 77 -133 55
-3 -6 -14 -1 -28 13 -17 18 -19 23 -6 18 9 -3 17 -2 17 3 0 6 -4 10 -8 10 -5
0 -14 11 -20 25 -15 33 -5 32 38 -3 34 -28 73 -52 84 -52 3 0 6 6 6 13 0 6
-19 21 -42 32 -23 11 -64 41 -91 66 -49 46 -49 47 -36 82 15 43 53 58 75 30 7
-10 14 -21 14 -25 0 -5 4 -8 9 -8 5 0 4 18 -1 41 -12 45 -2 64 26 53 17 -7 17
-17 0 -59 -14 -35 22 1 52 53 l27 46 14 -55 c8 -30 25 -70 38 -89z m6585 130
c20 -13 -87 -20 -396 -27 -302 -6 -328 -4 -309 28 8 12 685 11 705 -1z m-5209
-231 c35 -37 36 -49 7 -49 -12 0 -41 -12 -65 -26 -32 -18 -48 -23 -57 -15 -6
6 -22 8 -34 4 -12 -3 -33 2 -46 11 -15 10 -27 12 -31 6 -11 -18 -25 -10 -25
14 0 19 8 27 35 36 19 6 38 9 43 6 14 -8 103 16 109 30 8 23 33 16 64 -17z
m-1606 -263 c184 -94 464 -393 465 -495 0 -14 12 -53 25 -86 14 -33 25 -65 25
-72 0 -6 17 -33 37 -60 108 -141 192 -255 230 -313 59 -90 77 -117 123 -180
22 -30 40 -58 40 -63 0 -4 17 -26 38 -49 40 -44 104 -78 110 -59 2 6 11 11 19
11 17 0 15 -20 -8 -97 -11 -37 -11 -44 4 -61 9 -10 17 -29 17 -43 1 -23 1 -24
16 -4 8 11 12 25 10 32 -3 7 -1 13 4 13 6 0 10 -8 10 -17 0 -26 -46 -147 -57
-150 -5 -2 -20 16 -33 39 -33 59 -281 397 -345 471 -16 18 -98 120 -115 141
-31 41 -229 253 -266 286 -22 19 -64 55 -94 80 -30 25 -70 59 -90 76 -93 80
-375 274 -399 274 -6 0 -26 11 -46 24 -61 41 -198 85 -275 88 -64 3 -70 5 -70
24 0 13 18 38 46 63 37 33 44 44 35 55 -7 9 -8 17 -3 20 6 3 12 -1 15 -8 7
-17 65 -19 85 -3 18 14 15 -3 -9 -47 -23 -44 -19 -54 16 -38 35 16 55 15 77
-5 10 -9 18 -11 18 -5 0 6 -5 12 -12 14 -19 7 -1 38 22 38 11 0 20 6 20 14 0
17 79 78 92 70 15 -9 -40 -84 -62 -84 -6 0 -10 -4 -10 -10 0 -18 28 -11 59 16
17 14 49 55 72 90 48 74 41 74 164 10z m5408 -706 c23 -5 83 -18 132 -29 50
-12 137 -35 195 -52 58 -17 121 -34 140 -39 55 -12 71 -21 68 -39 -4 -22 -41
-25 -80 -7 -18 8 -64 20 -103 27 -38 6 -90 19 -115 29 -64 25 -153 50 -178 50
-39 0 -112 40 -112 62 0 10 2 10 53 -2z m-8943 -17 c0 -4 -63 -31 -90 -38 -14
-3 -79 -19 -145 -35 -66 -16 -167 -42 -225 -58 -97 -27 -105 -31 -108 -55 -4
-31 -17 -35 -30 -11 -6 11 -17 15 -31 11 -14 -3 -21 -1 -21 10 0 8 9 17 20 20
11 3 20 13 20 22 0 24 11 33 26 20 17 -14 168 23 324 80 50 18 260 46 260 34z
m2011 -527 c-9 -22 -31 -34 -31 -17 0 20 -20 11 -50 -21 -16 -18 -30 -43 -30
-55 0 -31 18 -29 26 2 7 27 34 35 34 10 0 -9 6 -12 15 -9 8 4 15 15 15 25 0
10 5 19 10 19 20 0 10 -57 -12 -72 -20 -14 -21 -17 -8 -33 13 -15 12 -17 -10
-13 -21 2 -26 -2 -28 -25 -3 -21 -7 -27 -19 -22 -23 8 -32 -12 -26 -54 4 -28
3 -34 -7 -24 -9 8 -17 7 -31 -5 -26 -22 -25 -46 1 -39 13 3 20 0 20 -8 0 -19
-20 -30 -47 -26 -25 3 -30 -8 -12 -26 8 -8 7 -20 -5 -44 -9 -18 -16 -41 -16
-51 0 -11 -9 -22 -20 -25 -11 -3 -18 -8 -15 -12 2 -4 -12 -33 -31 -65 -18 -31
-34 -61 -34 -66 0 -6 -9 -15 -20 -22 -11 -7 -20 -21 -20 -31 0 -10 -7 -20 -15
-23 -8 -4 -15 -12 -15 -19 0 -6 -10 -23 -22 -37 -113 -122 -138 -229 -118
-496 17 -225 24 -254 97 -379 22 -39 44 -82 48 -95 7 -20 4 -19 -16 7 -13 17
-27 31 -30 33 -4 2 -17 12 -30 23 -12 10 -29 19 -38 20 -9 1 -25 2 -36 3 -13
0 -20 8 -20 21 0 13 -8 21 -23 23 -20 3 -23 0 -18 -16 4 -12 1 -26 -8 -35 -13
-12 -10 -14 21 -13 21 1 38 -4 40 -11 3 -7 -2 -13 -11 -13 -26 0 -28 -20 -2
-31 l25 -12 -22 -17 -21 -17 27 -25 c15 -14 24 -28 20 -32 -4 -4 -8 -25 -9
-47 -2 -30 2 -42 14 -46 40 -13 72 -28 72 -34 0 -13 -28 -17 -38 -7 -6 6 -16
8 -23 6 -10 -3 -6 -12 12 -29 21 -19 25 -29 18 -47 -5 -12 -15 -25 -23 -28
-19 -7 -8 -35 12 -32 11 2 22 -16 39 -67 13 -38 28 -83 34 -100 6 -16 12 -40
15 -53 3 -13 14 -47 24 -75 24 -62 23 -57 8 -57 -18 0 -126 223 -194 400 -60
153 -73 180 -66 130 4 -31 -11 -42 -22 -15 -11 31 -25 15 -14 -17 12 -42 13
-46 3 -87 -7 -33 -7 -34 21 -27 17 4 24 3 17 -2 -17 -11 -19 -50 -4 -85 14
-35 14 -50 1 -42 -6 4 -10 -5 -10 -21 0 -23 2 -25 15 -14 21 18 32 3 16 -22
-9 -14 -10 -23 -2 -31 16 -16 14 -24 -9 -30 l-21 -5 21 -39 c11 -21 20 -50 20
-65 0 -24 -4 -28 -29 -28 -31 0 -41 18 -41 79 0 18 -6 59 -14 90 -13 51 -28
281 -30 471 -1 91 39 428 58 490 32 105 55 191 77 285 12 55 35 140 51 190 15
49 28 109 28 132 0 51 9 80 20 63 10 -15 30 -4 30 16 0 16 50 119 86 176 13
21 24 42 24 47 0 6 13 29 29 53 16 24 32 54 36 67 4 12 18 39 31 58 13 19 26
43 29 54 4 10 11 19 16 19 5 0 9 6 9 14 0 14 77 123 118 166 19 21 24 23 33
10 8 -11 9 -9 4 8 -6 21 -5 22 13 11 15 -9 18 -18 13 -33z m4781 -458 c18 -33
38 -90 38 -110 0 -10 5 -18 10 -18 17 0 12 -106 -5 -120 -13 -11 -15 -6 -15
35 0 39 -2 45 -14 36 -13 -11 -45 -6 -47 8 -3 23 -4 177 -1 184 6 14 21 7 34
-15z m-6818 -184 c3 -9 6 -21 6 -28 0 -15 -89 -66 -114 -66 -10 0 -14 -5 -11
-11 12 -19 -24 -49 -48 -40 -31 12 -75 -6 -79 -32 -2 -16 -11 -23 -30 -25 -15
-2 -33 -11 -40 -21 -18 -25 -52 -41 -86 -41 -36 0 -45 -9 -30 -28 10 -12 9
-14 -7 -10 -24 5 -65 -14 -101 -47 -28 -26 -68 -48 -114 -61 -14 -4 -37 -16
-52 -28 -15 -11 -41 -31 -57 -43 -16 -13 -34 -23 -39 -23 -6 0 -12 -6 -14 -12
-3 -7 -18 -11 -35 -10 -23 2 -38 -5 -60 -28 -15 -16 -34 -30 -41 -30 -15 0
-37 -12 -118 -66 -34 -23 -85 -47 -113 -54 -52 -12 -80 -6 -51 11 8 5 62 37
120 72 58 34 121 70 140 80 19 9 69 38 110 64 88 54 183 110 224 131 16 8 31
23 33 33 3 11 14 19 25 19 11 0 18 5 16 12 -3 7 4 17 15 23 11 5 25 19 31 30
6 11 14 22 18 25 4 3 -6 32 -22 65 -27 56 -28 61 -12 78 9 10 31 25 49 32 32
14 35 13 83 -23 28 -20 50 -42 50 -48 0 -6 -15 -22 -34 -35 -34 -23 -38 -39
-10 -39 8 0 14 6 14 13 0 7 9 18 20 25 17 10 21 10 26 -3 9 -23 27 -18 59 15
16 17 34 30 41 30 7 0 25 14 41 30 27 29 83 43 83 21 0 -5 14 -4 30 2 17 6 30
16 30 22 0 15 21 35 36 35 6 0 15 -7 18 -16z m9448 -41 c47 -25 49 -33 25 -76
-34 -61 -39 -62 -100 -23 -31 20 -58 40 -61 45 -8 12 63 71 85 71 10 0 32 -8
51 -17z m-5 -251 c104 -60 269 -156 368 -214 99 -57 222 -128 272 -157 93 -52
110 -66 96 -74 -7 -4 -79 36 -408 228 -49 29 -110 64 -135 77 -25 14 -101 58
-170 98 -69 40 -149 86 -177 102 -49 27 -67 48 -43 48 5 0 94 -49 197 -108z
m-1543 -9 c-1 -49 -2 -121 -3 -160 -1 -66 -3 -73 -21 -73 -15 0 -20 7 -20 24
0 14 -4 27 -8 30 -11 6 -57 -17 -57 -29 -2 -21 -17 -55 -25 -55 -14 0 -20 30
-14 70 4 27 13 41 30 49 13 6 24 15 24 19 0 5 13 26 29 46 20 25 31 52 36 93
7 61 11 73 24 73 4 0 7 -39 5 -87z m-7829 57 c0 -8 -10 -16 -22 -18 -14 -2
-23 -10 -23 -21 0 -22 -24 -44 -70 -61 -19 -8 -60 -34 -92 -57 -31 -24 -60
-43 -66 -43 -5 0 -21 -11 -36 -25 -15 -14 -35 -25 -45 -25 -10 0 -26 -9 -36
-20 -10 -11 -22 -20 -28 -20 -8 0 -79 -43 -193 -118 -19 -12 -65 -38 -102 -58
-37 -20 -71 -40 -76 -45 -6 -5 -24 -9 -42 -9 -19 0 -34 -6 -38 -15 -3 -8 -17
-15 -30 -15 -16 0 -38 -14 -60 -36 -26 -26 -40 -34 -55 -29 -24 7 -100 -33
-102 -55 -1 -11 -3 -10 -6 3 -2 9 -9 17 -14 17 -5 0 -9 7 -9 15 0 19 66 63
108 71 17 4 32 10 32 15 0 5 19 21 43 36 23 15 46 33 50 40 6 9 24 11 60 7 50
-5 55 -3 152 57 55 34 124 75 152 91 56 31 80 55 44 43 -46 -14 -18 14 38 38
33 14 63 32 68 39 11 17 67 48 87 48 9 0 16 6 16 14 0 8 15 20 34 26 19 6 51
24 72 41 20 16 43 29 50 29 7 0 14 4 16 9 4 12 90 50 108 48 8 -1 15 -9 15
-17z m8872 -44 c32 -18 159 -91 283 -161 124 -71 255 -148 292 -172 37 -23 74
-43 83 -43 18 0 70 -48 62 -57 -3 -3 -37 12 -74 33 -37 22 -72 41 -78 43 -16
7 -567 318 -632 358 -13 7 -23 18 -23 23 0 18 28 10 87 -24z m1477 -426 c65
-39 120 -70 123 -70 2 0 24 -13 48 -30 24 -16 46 -30 48 -30 5 0 358 -209 366
-216 2 -2 -2 -4 -10 -4 -8 0 -67 30 -130 66 -62 36 -143 82 -179 102 -36 20
-103 59 -150 87 -47 28 -121 70 -166 93 -73 37 -83 40 -100 27 -36 -27 -49
-16 -19 15 16 17 34 30 39 30 6 0 64 -32 130 -70z m-29 -105 c22 -13 67 -38
100 -56 33 -17 83 -46 110 -64 28 -17 107 -65 177 -106 70 -41 127 -78 127
-84 0 -5 -11 -18 -25 -29 -20 -14 -28 -16 -34 -6 -5 9 -9 9 -14 1 -10 -16 -36
-13 -36 4 0 12 -4 13 -18 4 -15 -10 -26 -6 -62 20 -24 17 -48 31 -54 31 -6 0
-28 11 -47 24 -20 14 -49 28 -65 32 -16 4 -37 15 -47 25 -10 10 -29 22 -42 25
-14 3 -25 10 -25 15 0 18 -41 49 -65 49 -29 0 -32 17 -7 37 16 14 16 14 -3 8
-46 -17 -62 -17 -69 0 -3 9 -3 22 1 28 3 7 3 9 -2 5 -5 -5 -23 3 -41 17 -18
14 -45 25 -60 25 -15 0 -24 3 -21 7 4 3 22 6 40 5 17 -1 39 3 47 9 22 14 89 1
135 -26z m-15224 -129 c13 -3 35 -7 49 -10 14 -2 43 2 65 10 22 7 45 14 52 14
18 0 92 -131 109 -192 7 -29 14 -92 14 -140 l0 -86 -27 7 c-19 5 -29 17 -38
46 -6 22 -19 55 -29 73 -10 19 -15 36 -12 39 3 4 -3 21 -14 38 -11 18 -27 50
-35 71 l-15 39 6 -35 c4 -19 11 -40 16 -47 5 -7 7 -17 3 -22 -3 -6 1 -22 10
-35 14 -21 45 -116 45 -138 0 -5 -6 -8 -12 -8 -17 0 -92 146 -84 165 3 9 0 15
-8 15 -7 0 -41 29 -74 65 l-61 66 -21 -21 c-24 -24 -25 -26 -2 -32 14 -4 100
-148 88 -148 -13 0 -176 174 -173 184 3 8 -4 28 -14 46 l-20 32 25 -6 c30 -8
34 8 10 42 -13 19 -13 22 -1 22 8 0 20 -7 27 -15 14 -16 40 -20 40 -6 0 5 -7
14 -15 21 -8 7 -15 20 -15 29 0 10 16 -1 44 -31 24 -26 54 -49 67 -52z m5970
-315 c-29 -40 -295 -292 -326 -308 -14 -8 -25 -18 -25 -23 0 -6 -7 -10 -15
-10 -38 0 -5 46 123 174 139 138 212 196 245 196 17 0 17 -2 -2 -29z m9549
-135 c0 -2 -7 -20 -16 -41 -10 -26 -15 -67 -14 -138 1 -56 1 -115 1 -132 -1
-37 20 -85 36 -85 7 0 13 -7 13 -15 0 -21 40 -55 66 -55 30 0 38 14 23 42 -7
13 -16 45 -19 71 -5 38 -4 47 7 43 11 -4 11 -1 2 15 -6 11 -8 23 -5 27 3 3 7
3 9 1 26 -44 47 -93 47 -110 0 -18 3 -19 15 -9 18 15 35 5 35 -23 0 -16 -3
-18 -12 -9 -18 18 -36 14 -43 -8 -5 -15 3 -33 29 -65 20 -24 36 -47 36 -51 0
-4 7 -12 16 -19 15 -11 14 -18 -10 -78 -24 -61 -25 -69 -13 -94 11 -21 12 -42
6 -83 -4 -30 -8 -104 -8 -163 -1 -89 -5 -115 -22 -149 -32 -62 -41 -32 -33
114 13 229 6 493 -12 475 -7 -6 -32 -114 -39 -167 -3 -25 -13 -58 -21 -75 -13
-27 -14 -27 -10 -5 17 88 18 110 7 110 -6 0 -11 -8 -11 -17 0 -10 -5 -25 -11
-33 -8 -12 -9 -10 -4 8 4 12 2 22 -4 22 -6 0 -13 -23 -17 -50 -4 -28 -8 -49
-9 -48 -1 2 -5 31 -9 66 -6 52 -4 62 8 62 8 0 21 10 27 23 6 12 20 30 31 41
11 10 16 21 13 24 -3 4 -20 -9 -36 -28 -17 -19 -46 -51 -64 -71 -19 -20 -31
-40 -28 -43 4 -3 -1 -6 -10 -6 -9 0 -17 -7 -17 -16 0 -8 -5 -12 -11 -9 -6 4
-8 20 -4 38 5 24 4 28 -4 17 -15 -21 -14 -84 3 -176 8 -44 17 -109 21 -145 6
-62 4 -69 -28 -125 -42 -70 -66 -150 -68 -221 -2 -48 -4 -53 -26 -53 -12 0
-23 -3 -23 -7 -1 -5 -9 -50 -19 -102 -11 -52 -17 -100 -14 -107 3 -8 -1 -14
-10 -14 -8 0 -36 -9 -63 -21 -27 -11 -60 -25 -73 -30 -13 -5 -21 -12 -19 -15
3 -2 18 0 34 7 16 6 40 16 54 21 14 6 33 14 42 19 31 16 43 10 21 -10 -11 -11
-39 -25 -62 -32 -32 -9 -41 -17 -40 -33 1 -19 2 -19 6 -2 4 15 7 16 14 5 7
-11 11 -10 23 6 19 27 31 12 31 -38 0 -43 0 -43 49 -46 33 -2 13 -10 -39 -15
-28 -3 -42 -3 -32 0 23 7 22 24 -3 24 -15 0 -20 7 -20 28 -1 26 -1 26 -21 -10
-11 -21 -27 -39 -37 -39 -9 -1 -24 -3 -32 -4 -8 -1 -28 -3 -43 -4 -16 0 -26
-5 -23 -10 12 -19 -31 -42 -75 -39 -32 2 -43 -1 -41 -10 4 -22 -21 -38 -90
-55 -77 -20 -88 -20 -88 -8 0 5 13 9 29 9 46 -1 71 25 34 35 -10 3 5 6 32 7
49 2 49 2 18 11 -36 10 -40 18 -20 38 10 11 9 14 -2 18 -11 5 -11 7 0 14 19
12 -3 12 -35 -1 -14 -5 -26 -16 -26 -25 0 -8 -5 -15 -11 -15 -6 0 -23 -8 -37
-18 -15 -10 -47 -24 -71 -31 -23 -7 -49 -15 -57 -18 -8 -3 -14 -1 -14 4 0 6
18 16 40 23 22 7 40 17 40 22 0 11 -11 10 -40 -7 -14 -8 -28 -14 -32 -15 -5 0
-8 45 -8 101 0 79 3 104 16 116 13 13 20 14 35 5 26 -17 29 -15 29 13 0 15 -5
23 -12 21 -7 -3 -25 -7 -40 -10 l-28 -6 0 810 0 811 25 24 24 25 446 0 c245 0
445 -2 445 -4z m72 -1362 c12 -8 9 -89 -3 -121 -7 -15 -11 -39 -10 -53 3 -52
-19 -135 -40 -152 -25 -21 -99 -24 -117 -6 -13 13 -16 58 -6 107 6 27 10 31
41 31 l34 0 -6 -52 c-8 -66 10 -45 20 25 7 43 5 47 -13 47 -16 0 -19 5 -15 21
4 12 14 24 25 27 10 2 21 16 24 31 3 14 8 32 10 39 2 8 -2 12 -8 10 -7 -3 -15
-18 -18 -34 -4 -24 -10 -30 -38 -32 -28 -3 -32 0 -31 20 1 46 23 92 49 99 24
7 86 2 102 -7z"/>
<path d="M9605 7993 c4 -10 7 -30 6 -45 -1 -32 -48 -128 -62 -128 -5 0 -9 -6
-9 -14 0 -16 37 -28 46 -14 3 5 13 6 23 3 53 -21 97 -20 146 5 21 11 32 20 23
20 -21 0 -32 16 -22 32 12 20 11 58 -3 58 -6 0 -16 6 -20 13 -4 6 -15 12 -23
12 -9 0 -16 11 -18 27 -2 19 -11 29 -34 37 -46 16 -62 14 -53 -6z"/>
<path d="M15413 2498 c-15 -20 -21 -42 -29 -105 -3 -32 -8 -60 -9 -63 -15 -25
51 -48 78 -27 21 16 49 181 34 196 -15 15 -62 14 -74 -1z"/>
<path d="M15535 2498 c-10 -31 -24 -97 -30 -145 -6 -49 -5 -53 14 -53 15 0 22
8 26 38 10 59 16 62 10 4 -6 -51 -5 -53 17 -50 21 3 24 11 34 83 7 44 13 91
15 105 3 20 -1 26 -18 28 -19 3 -23 -1 -23 -25 0 -15 -5 -35 -10 -43 -7 -11
-8 -2 -4 28 5 35 4 42 -10 42 -9 0 -19 -6 -21 -12z"/>
<path d="M7170 1986 c0 -118 -7 -132 -64 -123 -26 4 -36 1 -41 -10 -8 -22 5
-33 48 -40 46 -7 91 11 106 43 6 14 11 72 11 129 l0 105 -30 0 -30 0 0 -104z"/>
<path d="M7364 2076 c-69 -31 -98 -106 -70 -181 20 -51 50 -73 108 -81 50 -6
101 16 131 57 25 34 26 118 3 154 -36 54 -114 78 -172 51z m106 -56 c15 -15
20 -33 20 -70 0 -58 -24 -90 -66 -90 -39 0 -61 16 -74 55 -13 41 1 99 28 115
28 16 71 11 92 -10z"/>
<path d="M7610 1950 l0 -140 30 0 30 0 0 60 0 60 55 0 55 0 0 -60 0 -60 30 0
30 0 0 140 0 140 -30 0 c-30 0 -30 -1 -30 -55 l0 -55 -55 0 -55 0 0 55 c0 54
0 55 -30 55 l-30 0 0 -140z"/>
<path d="M7900 1950 l0 -140 30 0 30 0 0 92 0 91 21 -19 c11 -10 41 -51 66
-91 36 -58 50 -73 69 -73 l24 0 0 140 0 140 -30 0 -29 0 -3 -81 -3 -80 -59 80
c-50 69 -63 81 -87 81 l-29 0 0 -140z"/>
<path d="M8286 2053 c4 -21 19 -83 33 -138 26 -97 28 -100 57 -103 31 -3 31
-2 54 78 13 45 26 77 30 73 4 -4 17 -41 29 -80 20 -68 23 -73 50 -73 27 0 29
4 54 93 14 50 28 106 32 122 3 17 8 38 11 48 4 13 -1 17 -25 17 -33 0 -34 -2
-51 -100 -18 -99 -24 -102 -49 -22 -11 38 -21 75 -21 81 0 6 -13 11 -30 11
-19 0 -30 -5 -30 -14 0 -25 -41 -148 -47 -142 -4 3 -14 45 -23 94 -16 87 -16
87 -49 90 l-32 3 7 -38z"/>
<path d="M8680 1950 l0 -140 30 0 30 0 0 140 0 140 -30 0 -30 0 0 -140z"/>
<path d="M8874 2076 c-51 -22 -74 -61 -74 -123 0 -30 7 -67 15 -82 21 -42 77
-65 138 -57 56 6 71 15 62 38 -4 11 -18 14 -58 10 -71 -5 -97 18 -97 87 0 38
5 52 25 71 21 20 31 22 74 17 42 -5 50 -3 54 13 9 35 -79 52 -139 26z"/>
<path d="M9070 1950 l0 -140 30 0 30 0 0 62 0 61 25 -23 c13 -12 36 -40 51
-61 22 -32 33 -39 61 -39 40 0 39 5 -35 95 l-49 61 54 59 53 60 -32 3 c-29 3
-39 -3 -80 -50 l-48 -53 0 53 c0 51 0 52 -30 52 l-30 0 0 -140z"/>
<path d="M9603 2076 c-87 -39 -100 -196 -21 -245 52 -32 173 -20 166 17 -3 14
-12 16 -59 14 -51 -3 -58 -1 -78 24 -28 36 -28 93 1 129 20 25 25 27 74 22 45
-5 53 -3 57 14 6 24 -2 29 -60 35 -30 3 -60 -1 -80 -10z"/>
<path d="M9800 1950 l0 -140 30 0 30 0 0 60 0 60 55 0 55 0 0 -60 c0 -57 1
-60 25 -60 l25 0 0 140 0 140 -25 0 c-24 0 -25 -3 -25 -55 l0 -55 -55 0 -55 0
0 55 c0 54 0 55 -30 55 l-30 0 0 -140z"/>
<path d="M10151 2041 c-29 -67 -81 -210 -81 -222 0 -5 13 -9 29 -9 23 0 31 6
40 30 9 28 13 30 65 30 51 0 55 -2 65 -30 8 -24 16 -30 40 -30 17 0 31 3 31 8
0 4 -24 66 -53 137 -50 125 -53 130 -83 133 -29 3 -33 -1 -53 -47z"/>
<path d="M10393 2083 c-10 -3 -13 -41 -13 -139 l0 -134 30 0 c29 0 30 2 30 44
l0 43 50 7 c82 11 118 66 87 131 -12 25 -26 37 -54 44 -39 11 -108 13 -130 4z"/>
<path d="M10620 2065 c0 -22 4 -25 40 -25 l40 0 0 -115 0 -115 30 0 30 0 0
115 0 115 45 0 c41 0 45 2 45 25 l0 25 -115 0 -115 0 0 -25z"/>
<path d="M10890 1950 l0 -140 95 0 c95 0 95 0 95 25 0 24 -2 25 -65 25 l-65 0
0 35 0 35 55 0 c52 0 55 1 55 25 0 24 -3 25 -55 25 -54 0 -55 0 -55 30 l0 30
60 0 c57 0 60 1 60 25 0 25 -1 25 -90 25 l-90 0 0 -140z"/>
<path d="M11143 2083 c-10 -3 -13 -41 -13 -139 l0 -134 30 0 c29 0 30 1 30 50
0 68 25 68 65 0 26 -44 34 -50 63 -50 l34 0 -32 57 c-27 47 -29 58 -17 64 8 5
20 22 26 37 19 47 -6 98 -56 111 -39 11 -108 13 -130 4z"/>
<path d="M11508 2078 c-50 -18 -30 -46 32 -44 39 1 45 -2 45 -19 0 -15 -8 -21
-32 -23 -27 -3 -33 -7 -33 -28 0 -20 5 -24 29 -24 28 0 61 -22 61 -40 0 -5 -8
-16 -17 -25 -12 -13 -28 -16 -65 -13 -45 5 -48 4 -48 -18 0 -19 7 -24 44 -29
52 -8 83 0 114 28 28 26 29 77 3 101 -18 16 -18 19 -3 46 38 67 -41 121 -130
88z"/>
<path d="M8223 1623 c-10 -3 -13 -41 -13 -139 l0 -134 30 0 c29 0 30 2 30 44
l0 43 48 7 c78 10 115 65 88 130 -11 27 -23 37 -53 45 -39 11 -108 13 -130 4z"/>
<path d="M8495 1577 c-13 -30 -37 -93 -54 -140 l-30 -87 30 0 c24 0 32 6 40
30 11 29 13 30 69 30 57 0 59 -1 65 -30 6 -26 11 -30 40 -30 l33 0 -33 88
c-65 176 -74 192 -107 192 -26 0 -32 -6 -53 -53z"/>
<path d="M8738 1623 c-16 -4 -18 -19 -18 -139 l0 -134 30 0 c29 0 30 1 30 50
0 44 3 50 20 50 14 0 31 -16 52 -50 25 -41 36 -50 59 -50 36 0 36 5 -1 63
l-29 47 24 24 c44 44 29 107 -30 132 -33 13 -100 17 -137 7z"/>
<path d="M9055 1563 c-25 -62 -75 -202 -75 -210 0 -2 13 -3 29 -3 23 0 31 6
40 30 9 29 13 30 66 30 53 0 57 -1 66 -30 9 -24 17 -30 40 -30 16 0 29 2 29 5
0 12 -73 202 -91 238 -16 30 -25 37 -48 37 -26 0 -31 -6 -56 -67z"/>
<path d="M9308 1624 c-16 -5 -18 -20 -18 -134 0 -144 -3 -140 88 -140 106 0
168 74 111 131 -15 15 -18 24 -10 32 18 18 13 72 -9 92 -19 17 -125 30 -162
19z"/>
<path d="M9560 1490 l0 -140 100 0 100 0 0 25 c0 24 -2 25 -70 25 l-70 0 0 35
0 35 55 0 c52 0 55 1 55 25 0 24 -3 25 -55 25 -54 0 -55 0 -55 30 l0 30 65 0
c63 0 65 1 65 25 0 25 0 25 -95 25 l-95 0 0 -140z"/>
<path d="M9800 1490 l0 -140 95 0 c95 0 95 0 95 25 0 24 -2 25 -65 25 l-65 0
0 115 0 115 -30 0 -30 0 0 -140z"/>
<path d="M10030 1490 l0 -140 90 0 c89 0 90 0 90 25 0 24 -3 25 -60 25 l-60 0
0 115 0 115 -30 0 -30 0 0 -140z"/>
<path d="M10250 1521 c0 -102 2 -112 24 -138 21 -24 31 -28 80 -28 47 0 60 4
83 28 27 26 28 33 31 137 l4 110 -31 0 -31 0 0 -99 c0 -110 -11 -135 -59 -129
-38 4 -51 40 -51 141 0 86 0 87 -25 87 l-25 0 0 -109z"/>
<path d="M10547 1608 c-3 -13 -9 -76 -13 -140 l-7 -118 32 0 31 0 0 92 c0 102
5 104 43 13 20 -48 30 -60 48 -60 19 0 27 11 47 60 35 89 42 89 42 3 0 -93 5
-108 38 -108 l25 0 -7 125 c-3 68 -9 131 -12 140 -4 8 -18 15 -33 15 -25 0
-31 -8 -63 -82 l-36 -82 -37 82 c-34 74 -41 82 -65 82 -21 0 -29 -6 -33 -22z"/>
<path d="M2248 1313 c-38 -24 -61 -76 -54 -118 7 -37 48 -83 83 -91 109 -28
190 103 115 187 -35 39 -102 49 -144 22z m102 -43 c43 -23 31 -104 -17 -117
-54 -14 -93 11 -93 60 0 56 57 85 110 57z"/>
<path d="M2736 1309 c-49 -39 -23 -92 60 -119 66 -22 32 -62 -38 -43 -36 10
-38 9 -38 -12 0 -25 22 -35 83 -35 49 0 92 39 81 73 -10 34 -23 46 -65 59 -49
14 -69 35 -48 49 14 10 59 7 92 -6 13 -6 17 -2 17 14 0 42 -98 56 -144 20z"/>
<path d="M2973 1310 c-40 -24 -53 -48 -53 -99 0 -99 124 -148 196 -76 16 16
24 35 24 60 l0 35 -55 0 c-52 0 -55 -1 -55 -25 0 -21 5 -25 31 -25 37 0 35
-20 -3 -32 -85 -29 -135 92 -54 131 24 11 33 11 66 -4 62 -28 84 1 28 35 -42
25 -84 25 -125 0z"/>
<path d="M2470 1215 c0 -105 0 -105 25 -105 23 0 24 4 27 61 l3 62 48 -62 c30
-37 56 -61 68 -61 18 0 19 8 19 105 0 98 -1 105 -20 105 -18 0 -20 -7 -20 -60
0 -33 -3 -60 -7 -60 -5 1 -28 28 -52 60 -32 43 -51 60 -68 60 -23 0 -23 -2
-23 -105z"/>
<path d="M3202 1222 c-23 -54 -42 -101 -42 -105 0 -4 11 -7 24 -7 15 0 26 7
29 20 4 17 14 20 55 20 42 0 52 -3 57 -20 4 -13 15 -20 32 -20 16 0 23 5 20
13 -2 6 -22 54 -43 104 -34 82 -42 93 -64 93 -22 0 -30 -11 -68 -98z"/>
<path d="M3360 1300 c0 -16 7 -20 35 -20 l35 0 0 -85 c0 -84 0 -85 25 -85 25
0 25 1 25 85 l0 85 35 0 c28 0 35 4 35 20 0 19 -7 20 -95 20 -88 0 -95 -1 -95
-20z"/>
<path d="M3580 1215 l0 -105 74 0 c54 0 75 4 79 14 8 21 -2 26 -55 26 -41 0
-48 3 -48 20 0 17 7 20 45 20 41 0 45 2 45 25 0 23 -4 25 -45 25 -38 0 -45 3
-45 20 0 17 7 20 48 20 53 0 63 5 55 26 -4 10 -25 14 -79 14 l-74 0 0 -105z"/>
<path d="M8756 185 c-24 -25 -22 -136 3 -159 26 -23 63 -17 78 14 16 32 16 98
0 130 -15 30 -58 38 -81 15z"/>
</g>
</svg>
