<?xml version="1.0" standalone="no"?>
<!DOCTYPE svg PUBLIC "-//W3C//DTD SVG 20010904//EN"
 "http://www.w3.org/TR/2001/REC-SVG-20010904/DTD/svg10.dtd">
<svg version="1.0" xmlns="http://www.w3.org/2000/svg"
 width="1917.000000pt" height="971.000000pt" viewBox="0 0 1917.000000 971.000000"
 preserveAspectRatio="xMidYMid meet">
<metadata>
Created by potrace 1.15, written by Peter Selinger 2001-2017
</metadata>
<g transform="translate(0.000000,971.000000) scale(0.100000,-0.100000)"
fill="#000000" stroke="none">
<path d="M0 4855 l0 -4855 9585 0 9585 0 0 4855 0 4855 -9585 0 -9585 0 0
-4855z m547 4633 c142 -67 185 -276 78 -382 -126 -126 -331 -95 -405 61 -58
124 -13 261 106 318 82 39 143 40 221 3z m15793 -158 c5 -8 10 -59 10 -112 0
-75 -4 -100 -16 -112 -14 -14 -115 -16 -964 -16 l-949 0 -15 22 c-11 16 -16
46 -16 103 0 95 6 122 29 128 9 3 443 4 964 3 830 -1 949 -3 957 -16z m2010 0
c5 -8 10 -59 10 -112 0 -75 -4 -100 -16 -112 -14 -14 -115 -16 -964 -16 l-949
0 -15 22 c-11 16 -16 46 -16 103 0 95 6 122 29 128 9 3 443 4 964 3 830 -1
949 -3 957 -16z m-8919 -1500 c16 0 29 -4 29 -10 0 -5 -7 -10 -15 -10 -9 0
-12 -6 -9 -15 13 -33 -5 -64 -41 -71 -56 -10 -45 -25 29 -36 56 -9 41 -82 -19
-94 -65 -12 -109 24 -87 69 16 32 17 59 3 87 -23 48 16 97 67 84 8 -2 27 -4
43 -4z m627 -31 c15 -29 9 -96 -11 -116 -8 -8 -31 -15 -51 -16 -34 -1 -36 -3
-36 -34 0 -23 -5 -33 -15 -33 -12 0 -15 19 -15 114 l0 115 38 3 c50 4 75 -5
90 -33z m1440 -265 c21 -14 22 -22 22 -159 0 -117 -3 -146 -16 -159 -14 -14
-202 -16 -1924 -16 l-1909 0 -15 22 c-13 17 -16 50 -16 148 0 140 5 167 29
173 9 3 869 5 1911 6 1701 1 1898 -1 1918 -15z m0 -420 c21 -14 22 -22 22
-159 0 -117 -3 -146 -16 -159 -14 -14 -202 -16 -1924 -16 l-1909 0 -15 22
c-13 17 -16 50 -16 148 0 140 5 167 29 173 9 3 869 5 1911 6 1701 1 1898 -1
1918 -15z m0 -420 c21 -14 22 -22 22 -159 0 -117 -3 -146 -16 -159 -14 -14
-202 -16 -1924 -16 l-1909 0 -15 22 c-13 17 -16 50 -16 148 0 140 5 167 29
173 9 3 869 5 1911 6 1701 1 1898 -1 1918 -15z m0 -420 c21 -14 22 -22 22
-159 0 -117 -3 -146 -16 -159 -14 -14 -202 -16 -1924 -16 l-1909 0 -15 22
c-13 17 -16 50 -16 148 0 140 5 167 29 173 9 3 869 5 1911 6 1701 1 1898 -1
1918 -15z m1062 -2850 l0 -24 40 20 c47 24 100 26 140 5 57 -29 33 -66 -97
-149 -40 -25 -73 -49 -73 -54 0 -4 47 -31 105 -60 58 -28 105 -56 105 -61 0
-24 -26 -18 -119 29 -56 27 -103 50 -106 50 -3 0 -5 -36 -5 -80 0 -64 -3 -80
-15 -80 -12 0 -15 16 -15 85 0 89 -6 100 -44 72 -17 -13 -17 -16 2 -85 17 -59
18 -73 7 -82 -11 -9 -18 3 -35 60 l-22 72 -31 -6 c-44 -9 -67 -33 -67 -73 0
-30 -21 -55 -35 -41 -3 2 4 89 15 194 11 104 20 195 20 202 0 6 9 12 19 12 20
0 22 -5 81 -166 l22 -62 34 11 34 10 0 118 c0 112 1 117 20 112 13 -4 20 -14
20 -29z m-1025 -73 c-32 -110 -106 -324 -117 -335 -5 -6 -12 -6 -18 0 -7 7 -4
29 10 69 11 32 20 65 20 74 0 9 -25 45 -54 80 -56 65 -84 116 -71 129 3 4 18
-6 32 -23 79 -96 105 -125 112 -125 4 0 25 52 46 115 29 85 42 112 51 105 9
-8 6 -29 -11 -89z m3559 84 c8 -23 -125 -425 -141 -425 -17 0 -16 38 2 90 22
62 19 76 -24 123 -70 76 -110 147 -82 147 4 0 36 -34 70 -75 34 -41 66 -75 71
-75 5 0 26 52 46 115 20 63 40 115 44 115 5 0 11 -7 14 -15z m2273 -7 c4 -7
11 -83 14 -168 4 -85 10 -170 14 -187 7 -31 6 -33 -19 -33 -14 0 -26 6 -26 13
0 7 -37 60 -82 117 l-83 105 -3 -35 c-2 -19 1 -75 8 -123 9 -65 9 -92 1 -100
-7 -7 -14 -7 -20 -1 -8 9 -41 271 -41 327 0 50 28 29 116 -88 48 -63 91 -115
97 -115 10 0 3 197 -9 268 -5 25 -3 32 9 32 9 0 19 -6 24 -12z m-3631 -181
c-43 -183 -51 -207 -66 -207 -12 0 -72 124 -100 204 l-16 49 -40 -133 c-21
-73 -45 -139 -52 -147 -37 -37 -59 -3 -97 147 -14 57 -33 119 -41 138 -10 26
-11 38 -3 48 6 8 15 11 20 8 5 -3 29 -70 54 -149 25 -80 48 -145 50 -145 5 0
81 244 87 275 2 12 11 20 23 20 16 0 26 -19 55 -105 54 -160 51 -160 89 -2 39
167 48 189 64 173 8 -8 2 -51 -27 -174z m402 131 c11 -29 30 -81 42 -115 21
-59 23 -61 47 -52 42 16 73 11 73 -11 0 -16 -5 -19 -27 -14 -16 3 -36 -1 -47
-9 -18 -13 -18 -15 2 -85 17 -59 18 -73 7 -82 -11 -9 -18 3 -35 60 l-22 72
-31 -6 c-44 -9 -67 -33 -67 -73 0 -30 -21 -55 -35 -41 -3 2 4 89 15 194 11
104 20 195 20 202 0 6 9 12 19 12 14 0 25 -14 39 -52z m2055 -38 c11 -123 5
-322 -10 -327 -19 -7 -22 26 -25 230 -3 162 -1 187 12 185 11 -3 17 -25 23
-88z m-3183 72 c0 -4 -36 -26 -80 -47 l-80 -39 0 -58 c0 -32 2 -58 5 -58 11 0
90 43 108 58 9 8 20 12 23 9 13 -13 -7 -37 -48 -58 -70 -35 -78 -46 -78 -106
0 -29 4 -53 9 -53 4 0 39 20 77 45 66 44 94 54 94 36 0 -9 -116 -89 -165 -113
-51 -26 -55 -17 -55 105 0 62 -5 146 -10 187 -11 84 -1 111 28 73 l17 -23 60
25 c61 25 95 31 95 17z m3433 2 c3 -4 2 -15 -4 -25 -8 -16 -17 -18 -48 -13
-33 5 -43 2 -73 -24 -46 -41 -73 -92 -64 -125 7 -30 38 -41 146 -52 80 -9 100
-19 100 -50 0 -20 -12 -30 -72 -59 -81 -40 -164 -58 -156 -36 2 8 35 24 72 36
128 41 151 68 69 79 -110 15 -157 28 -179 51 -13 13 -24 30 -24 39 0 73 120
183 201 185 14 0 29 -3 32 -6z m627 -2 c0 -4 -36 -26 -81 -47 l-81 -40 6 -54
c4 -30 8 -57 11 -59 2 -2 31 12 64 32 62 36 88 35 48 -1 -12 -12 -41 -30 -64
-42 l-43 -21 0 -61 c0 -71 -1 -71 90 -9 55 37 90 50 90 33 0 -10 -149 -109
-182 -122 -14 -5 -30 -6 -35 -3 -7 5 -12 69 -15 174 -1 91 -6 169 -10 173 -3
4 -36 4 -72 0 l-66 -7 0 -52 c0 -28 7 -96 15 -151 18 -127 19 -145 1 -145 -8
0 -17 4 -21 9 -6 10 -35 266 -35 310 0 22 -3 23 -37 18 -21 -3 -59 -9 -85 -13
-40 -6 -48 -4 -48 9 0 16 16 21 105 33 28 4 55 14 61 23 10 13 14 13 28 2 15
-13 42 -12 159 5 33 5 37 3 37 -16 0 -17 4 -21 18 -15 95 40 142 52 142 37z
m-2614 -12 c7 -7 38 -7 95 -1 46 5 86 7 88 5 13 -13 -27 -28 -98 -37 l-81 -11
0 -31 c0 -16 7 -75 15 -130 19 -132 19 -185 1 -185 -18 0 -23 22 -41 194 -7
76 -17 141 -20 144 -3 3 -32 1 -63 -6 -71 -15 -102 -15 -102 -2 0 15 35 26
103 34 36 5 60 13 64 22 6 16 25 18 39 4z m3420 0 c7 -7 38 -7 95 -1 46 5 86
7 88 5 13 -13 -27 -28 -98 -37 l-81 -11 0 -31 c0 -16 7 -75 15 -130 19 -132
19 -185 1 -185 -18 0 -23 22 -41 194 -7 76 -17 141 -20 144 -3 3 -32 1 -63 -6
-71 -15 -102 -15 -102 -2 0 15 35 26 103 34 36 5 60 13 64 22 6 16 25 18 39 4z
m-6139 -34 c27 -24 28 -27 28 -128 0 -87 -4 -109 -22 -145 -48 -89 -122 -110
-156 -43 -37 72 0 273 60 320 34 26 56 25 90 -4z m3538 1 c67 -57 47 -258 -31
-327 -59 -51 -115 -31 -130 46 -10 54 11 175 41 234 37 73 73 88 120 47z
m2892 8 c72 -50 47 -285 -37 -345 -81 -58 -139 17 -119 156 16 114 68 204 118
204 9 0 26 -7 38 -15z m-4323 -56 c3 -34 6 -82 6 -105 0 -24 2 -44 5 -44 22 0
77 33 91 54 13 22 15 39 10 92 -6 59 -5 65 11 62 16 -3 20 -26 35 -178 17
-165 15 -201 -10 -186 -5 3 -12 42 -16 88 -4 45 -9 84 -11 86 -4 5 -71 -34
-97 -56 -13 -11 -18 -30 -18 -69 0 -38 -4 -53 -14 -53 -16 0 -26 100 -26 262
0 84 3 108 14 108 9 0 15 -20 20 -61z m-1832 29 c2 -7 3 -98 3 -203 0 -212
-14 -260 -30 -106 l-10 94 -22 -46 c-27 -56 -73 -85 -110 -68 -33 15 -40 39
-48 189 -7 130 -7 132 14 132 20 0 21 -5 21 -119 0 -138 8 -171 44 -171 35 0
63 64 87 196 10 59 19 109 19 111 0 9 28 1 32 -9z m3542 -5 c4 -10 4 -63 1
-118 -3 -55 -2 -134 3 -175 6 -49 6 -82 -1 -95 -10 -20 -10 -20 -18 0 -4 11
-11 55 -14 99 l-7 79 -18 -39 c-30 -68 -83 -98 -125 -70 -28 19 -32 37 -40
199 l-5 118 22 -3 c22 -3 23 -7 25 -123 4 -152 7 -165 38 -165 18 0 29 10 44
38 19 37 51 170 51 212 0 25 17 60 29 60 5 0 12 -8 15 -17z m330 -60 c3 -42 6
-111 6 -155 0 -43 4 -78 9 -78 5 0 52 20 105 45 54 25 102 45 107 45 16 0 9
-30 -8 -36 -10 -3 -58 -25 -108 -50 -49 -24 -102 -44 -116 -44 -25 0 -27 4
-33 61 -3 34 -6 113 -6 175 0 104 2 114 19 114 15 0 19 -11 25 -77z"/>
<path d="M11668 3339 c-41 -23 -78 -237 -48 -274 46 -56 110 44 113 175 1 93
-20 126 -65 99z"/>
<path d="M15203 3331 c-46 -44 -69 -250 -30 -275 46 -29 100 68 101 184 1 103
-24 135 -71 91z"/>
<path d="M18101 3333 c-22 -19 -61 -146 -61 -200 0 -17 5 -44 10 -58 8 -21 16
-26 38 -23 40 4 74 78 80 172 6 110 -18 150 -67 109z"/>
</g>
</svg>
