<?xml version="1.0" standalone="no"?>
<!DOCTYPE svg PUBLIC "-//W3C//DTD SVG 20010904//EN"
 "http://www.w3.org/TR/2001/REC-SVG-20010904/DTD/svg10.dtd">
<svg version="1.0" xmlns="http://www.w3.org/2000/svg"
 width="1900.000000pt" height="970.000000pt" viewBox="0 0 1900.000000 970.000000"
 preserveAspectRatio="xMidYMid meet">
<metadata>
Created by potrace 1.15, written by Peter Selinger 2001-2017
</metadata>
<g transform="translate(0.000000,970.000000) scale(0.100000,-0.100000)"
fill="#000000" stroke="none">
<path d="M4747 9693 c2614 -2 6892 -2 9505 0 2614 1 476 2 -4752 2 -5228 0
-7366 -1 -4753 -2z"/>
<path d="M9768 9503 c-17 -4 -18 -28 -18 -319 l0 -314 50 0 50 0 0 92 0 92 35
-34 c19 -19 54 -60 77 -92 l43 -58 58 0 58 0 -21 38 c-11 20 -49 70 -83 111
-34 40 -66 79 -71 86 -7 10 15 39 79 107 l89 93 -60 3 -59 4 -72 -79 -73 -78
0 178 0 177 -32 -1 c-18 -1 -41 -3 -50 -6z"/>
<path d="M10344 9408 c9 -131 12 -138 51 -138 37 0 38 3 51 153 l7 77 -58 0
-58 0 7 -92z"/>
<path d="M8130 9431 l-35 -6 0 -235 c0 -208 2 -239 18 -268 26 -47 75 -66 159
-60 84 7 98 17 88 64 -5 20 -10 38 -13 40 -2 3 -25 -1 -50 -8 -90 -24 -107 2
-107 168 l0 94 80 0 80 0 0 45 0 45 -80 0 -80 0 0 65 c0 46 -4 65 -12 64 -7
-1 -29 -4 -48 -8z"/>
<path d="M8685 9316 c-5 -2 -22 -7 -37 -10 -24 -5 -28 -12 -28 -39 0 -50 10
-58 55 -46 79 22 145 -4 145 -55 0 -19 -6 -21 -63 -22 -115 -1 -181 -53 -181
-144 0 -116 99 -161 298 -134 l46 7 0 169 c0 187 -6 209 -61 249 -23 16 -49
23 -98 25 -36 2 -70 2 -76 0z"/>
<path d="M9275 9310 c-83 -26 -119 -116 -75 -188 15 -24 41 -42 100 -69 81
-36 103 -60 80 -88 -16 -19 -101 -19 -152 -1 l-36 13 -12 -45 c-6 -24 -10 -45
-8 -47 17 -13 84 -25 140 -25 120 0 178 42 178 131 0 65 -29 97 -124 139 -81
35 -103 62 -70 87 22 16 80 17 123 2 18 -6 34 -9 36 -7 2 2 7 22 11 44 5 34 3
42 -12 48 -32 12 -147 16 -179 6z"/>
<path d="M10820 9313 c-14 -2 -40 -9 -57 -14 l-33 -11 0 -209 0 -209 50 0 50
0 0 174 0 174 28 7 c16 3 48 2 71 -4 47 -10 49 -8 53 49 3 31 0 35 -27 41 -34
7 -97 8 -135 2z"/>
<path d="M1142 8363 l1148 -3 3 -4183 2 -4182 3 4182 2 4183 8353 3 8352 2
-9505 0 c-5228 0 -8989 -1 -8358 -2z"/>
<path d="M10727 8049 c-22 -13 -45 -59 -62 -124 -8 -29 -32 -91 -53 -136 -22
-46 -43 -95 -47 -109 -4 -14 -19 -40 -32 -58 -50 -67 -123 -90 -173 -55 -45
31 -49 43 -43 118 4 57 2 78 -12 105 -10 19 -24 53 -31 75 -19 60 -18 6 1 -60
15 -50 15 -55 -10 -130 -27 -83 -26 -106 9 -169 20 -37 156 -156 178 -156 7 0
7 -4 0 -12 -31 -39 -56 -101 -63 -158 -4 -36 -11 -75 -14 -87 -7 -20 -4 -21
58 -19 36 1 68 4 72 7 3 4 -10 16 -30 28 -20 11 -34 25 -31 30 4 5 2 21 -4 35
-8 22 -5 29 28 56 20 16 42 30 49 30 6 0 20 14 30 30 9 17 23 30 30 30 8 0 35
11 61 23 65 32 191 54 203 36 10 -16 10 -44 0 -79 -11 -36 8 -72 33 -66 12 3
30 -2 40 -10 25 -18 60 -18 111 0 41 14 59 36 30 36 -9 0 -13 5 -9 11 4 8 -3
9 -26 4 -23 -5 -30 -4 -26 4 9 14 3 14 -28 -1 -22 -9 -29 -8 -45 6 -18 16 -18
21 -7 54 21 60 28 110 17 130 -6 11 -35 36 -66 57 -54 38 -55 39 -55 89 0 28
-3 61 -6 73 -5 17 0 22 26 28 19 4 36 3 43 -4 15 -15 27 -14 27 4 0 16 -16 20
-62 16 -33 -3 -52 30 -62 104 l-6 50 33 -39 c22 -26 39 -37 52 -34 23 4 22 42
-1 65 -8 8 -14 22 -14 31 1 15 2 15 13 2 16 -19 53 -40 72 -40 18 0 38 36 29
53 -29 47 -84 99 -125 116 -53 23 -75 25 -102 10z"/>
<path d="M8746 5608 c-3 -13 -6 -53 -6 -90 0 -53 3 -68 15 -68 10 0 15 15 17
58 l3 57 24 -47 c14 -27 30 -48 37 -48 7 0 20 20 30 45 9 25 21 45 25 45 5 0
9 -25 9 -55 0 -42 3 -55 15 -55 17 0 20 51 9 134 -9 62 -27 59 -62 -11 l-29
-56 -26 56 c-27 60 -50 73 -61 35z"/>
<path d="M11140 5570 c-28 -28 -26 -75 5 -105 27 -28 37 -30 68 -14 30 16 37
28 37 70 0 63 -66 93 -110 49z"/>
<path d="M7400 5320 c0 -27 -3 -30 -30 -30 -61 0 -81 -93 -29 -133 20 -14 35
-17 58 -12 l31 7 0 99 c0 81 -3 99 -15 99 -10 0 -15 -10 -15 -30z"/>
<path d="M7787 5272 c-20 -22 -22 -81 -4 -105 6 -9 24 -19 39 -22 21 -5 33 -1
52 19 15 14 26 35 26 46 0 24 -18 61 -34 72 -20 14 -63 8 -79 -10z"/>
<path d="M8607 5283 c-4 -3 -7 -46 -7 -95 0 -72 3 -88 15 -88 9 0 15 9 15 25
0 22 4 24 23 20 36 -9 71 24 71 68 0 49 -27 77 -74 77 -20 0 -40 -3 -43 -7z"/>
<path d="M10117 5283 c-4 -3 -7 -35 -7 -70 0 -49 3 -63 15 -63 12 0 15 13 15
55 0 51 2 55 24 55 13 0 26 5 28 11 2 6 16 -20 30 -58 27 -68 26 -82 -8 -87
-32 -5 -28 -26 5 -26 36 0 52 20 81 105 24 69 25 85 6 85 -8 0 -18 -19 -25
-45 -6 -25 -15 -45 -20 -45 -5 0 -14 20 -21 45 l-13 45 -52 0 c-28 0 -55 -3
-58 -7z"/>
<path d="M10861 5264 c-11 -15 -21 -34 -21 -44 0 -28 39 -70 66 -70 13 0 24
-4 24 -10 0 -5 -18 -10 -40 -10 -29 0 -40 -4 -40 -15 0 -22 83 -21 101 2 9 10
14 42 14 92 l0 76 -41 3 c-35 3 -45 -1 -63 -24z"/>
<path d="M11560 5263 c-16 -20 -20 -36 -16 -58 17 -87 130 -79 130 9 0 72 -72
102 -114 49z"/>
<path d="M11930 5195 c0 -78 3 -95 15 -95 9 0 15 9 15 23 0 20 5 24 31 24 40
0 59 24 59 74 0 46 -27 69 -82 69 l-38 0 0 -95z"/>
<path d="M13400 5270 c-28 -28 -26 -75 5 -105 27 -28 37 -30 68 -14 30 16 37
28 37 70 0 63 -66 93 -110 49z"/>
<path d="M2639 4136 c-2 -2 -21 -7 -42 -10 -22 -3 -48 -13 -60 -21 -19 -13
434 -15 4002 -15 l4023 0 29 -29 29 -29 0 -942 0 -942 -29 -29 -29 -29 -4027
0 -4027 0 -29 29 -29 29 0 939 c-1 966 -2 993 -37 848 -17 -72 -17 -1639 0
-1710 29 -116 76 -163 192 -192 73 -18 7807 -18 7880 0 52 13 110 40 132 63 7
7 26 37 41 66 l27 53 0 865 0 865 -33 62 c-28 56 -39 67 -95 95 l-62 33 -3926
3 c-2159 1 -3927 0 -3930 -2z"/>
<path d="M13367 4106 c-47 -17 -74 -47 -87 -97 -7 -25 -9 -353 -8 -946 l3
-908 23 -32 c48 -68 -63 -63 1504 -63 1116 0 1423 3 1441 13 51 28 75 67 82
131 3 33 5 455 3 936 -3 910 -3 896 -42 936 -41 40 3 39 -1471 41 -1169 2
-1416 0 -1448 -11z m2908 -41 l25 -24 0 -951 0 -951 -25 -24 c-23 -23 -31 -25
-132 -25 l-109 0 -21 73 c-13 39 -25 87 -29 105 -6 32 -14 38 -143 101 -75 36
-211 95 -303 130 -158 61 -207 85 -123 62 32 -8 36 -8 33 7 -2 9 -8 17 -15 17
-6 0 -22 9 -35 20 -13 11 -43 27 -67 35 -27 8 -47 23 -54 37 -5 13 -14 23 -19
23 -4 0 -8 5 -8 10 0 13 37 13 45 0 4 -6 11 -8 16 -4 11 6 -27 44 -45 44 -6 0
-22 10 -36 21 -28 23 -30 24 65 -22 94 -45 92 -45 76 -25 -8 10 -33 27 -55 38
-23 11 -42 22 -44 23 -1 1 13 26 32 55 77 116 58 180 -102 357 -41 47 -54 54
-105 64 -66 14 -86 5 -68 -29 7 -14 8 -29 2 -45 -5 -14 -7 -34 -5 -44 8 -28
-19 -52 -52 -45 -21 4 -25 2 -20 -9 4 -8 -8 3 -28 24 -20 20 -40 37 -45 37 -5
0 -26 -19 -45 -42 -33 -38 -35 -43 -22 -63 20 -30 10 -66 -30 -110 -19 -21
-34 -41 -34 -44 0 -3 -16 -7 -36 -8 -42 -2 -64 -18 -64 -45 0 -18 -6 -19 -55
-16 -59 3 -64 -2 -43 -47 15 -32 24 -32 58 5 25 27 34 30 100 32 66 1 74 -1
91 -23 23 -31 76 -158 95 -229 17 -65 27 -86 72 -162 41 -68 58 -78 67 -38 4
19 0 38 -12 57 -37 59 16 2 87 -91 37 -50 95 -121 129 -158 34 -36 61 -69 61
-72 0 -3 -126 -6 -279 -6 -274 0 -279 0 -274 20 5 20 23 28 23 10 0 -18 19
-11 31 11 15 29 -3 69 -31 69 -11 0 -59 13 -106 30 -58 20 -82 25 -74 15 13
-15 7 -85 -11 -132 l-9 -23 -610 0 -611 0 -24 25 -25 24 0 951 0 951 25 24 24
25 1451 0 1451 0 24 -25z"/>
<path d="M6640 3090 c0 -26 -4 -30 -28 -30 -16 0 -36 -8 -45 -18 -17 -19 -23
-78 -9 -98 14 -22 53 -35 83 -29 l29 7 0 99 c0 81 -3 99 -15 99 -10 0 -15 -10
-15 -30z"/>
<path d="M7570 3090 c0 -27 -3 -30 -30 -30 -56 0 -87 -59 -59 -111 14 -26 52
-40 89 -33 l30 7 0 98 c0 81 -3 99 -15 99 -10 0 -15 -10 -15 -30z"/>
<path d="M8870 3090 c0 -27 -3 -30 -30 -30 -61 0 -81 -93 -29 -133 20 -14 35
-17 58 -12 l31 7 0 99 c0 81 -3 99 -15 99 -10 0 -15 -10 -15 -30z"/>
<path d="M9200 3090 c0 -26 -4 -30 -28 -30 -16 0 -36 -8 -45 -18 -17 -19 -23
-78 -9 -98 14 -22 53 -35 83 -29 l29 7 0 99 c0 81 -3 99 -15 99 -10 0 -15 -10
-15 -30z"/>
<path d="M5230 3040 c-41 -41 -12 -120 45 -120 14 0 25 -4 25 -10 0 -5 -18
-10 -40 -10 -29 0 -40 -4 -40 -15 0 -18 60 -21 91 -5 16 9 19 22 19 95 l0 85
-40 0 c-27 0 -47 -7 -60 -20z"/>
<path d="M5370 2989 c0 -55 3 -69 15 -69 12 0 15 13 15 56 0 52 1 55 23 52 19
-3 22 -10 25 -55 2 -38 7 -53 18 -53 10 0 14 14 14 56 0 52 1 55 23 52 19 -3
22 -10 25 -55 2 -38 7 -53 18 -53 10 0 14 14 14 54 0 75 -11 84 -110 84 l-80
1 0 -70z"/>
<path d="M6190 2965 c0 -78 3 -95 15 -95 9 0 15 9 15 24 0 18 4 23 18 19 31
-8 72 34 72 73 0 47 -29 74 -80 74 l-40 0 0 -95z"/>
<path d="M6347 3053 c-4 -3 -7 -46 -7 -95 0 -72 3 -88 15 -88 9 0 15 9 15 25
0 22 4 24 23 20 36 -9 71 24 71 68 0 49 -27 77 -74 77 -20 0 -40 -3 -43 -7z"/>
<path d="M7047 3042 c-9 -10 -17 -35 -17 -55 0 -40 27 -67 69 -67 37 0 13 -18
-29 -22 -49 -4 -44 -22 7 -26 59 -4 75 22 71 114 l-3 69 -41 3 c-29 2 -45 -2
-57 -16z"/>
<path d="M7800 3033 c-16 -20 -20 -36 -16 -58 17 -87 130 -79 130 9 0 72 -72
102 -114 49z"/>
<path d="M8377 3053 c-4 -3 -7 -46 -7 -95 0 -72 3 -88 15 -88 9 0 15 9 15 25
0 22 4 24 23 20 36 -9 71 24 71 68 0 49 -27 77 -74 77 -20 0 -40 -3 -43 -7z"/>
<path d="M9770 3040 c-30 -30 -27 -83 6 -109 15 -12 32 -21 39 -21 7 0 24 9
39 21 50 39 23 129 -39 129 -14 0 -34 -9 -45 -20z"/>
<path d="M9910 2965 c0 -78 3 -95 15 -95 9 0 15 9 15 23 0 20 5 24 31 24 40 0
59 24 59 74 0 46 -27 69 -82 69 l-38 0 0 -95z"/>
<path d="M4760 2740 c-28 -28 -26 -75 5 -105 27 -28 37 -30 68 -14 30 16 37
28 37 70 0 63 -66 93 -110 49z"/>
<path d="M5281 2741 c-43 -43 -13 -121 45 -121 14 0 23 -4 19 -10 -3 -5 -22
-10 -41 -10 -24 0 -34 -5 -34 -15 0 -11 11 -15 39 -15 61 0 72 18 69 109 l-3
76 -37 3 c-27 2 -43 -3 -57 -17z"/>
<path d="M11009 1936 c-2 -2 -21 -7 -42 -10 -22 -3 -48 -13 -60 -21 -19 -13
422 -15 3897 -15 l3918 0 29 -29 29 -29 0 -916 0 -916 35 0 36 0 -3 873 -3
872 -33 62 c-28 56 -39 67 -95 95 l-62 33 -3821 3 c-2101 1 -3822 0 -3825 -2z"/>
<path d="M10803 1798 c-30 -62 -32 -131 -33 -955 l0 -843 25 0 25 0 0 910 c0
501 -1 910 -3 910 -2 0 -8 -10 -14 -22z"/>
<path d="M5097 1406 c-46 -17 -74 -47 -87 -95 -6 -22 -10 -279 -10 -673 0
-561 2 -638 15 -638 8 0 15 9 15 19 0 15 12 21 58 31 88 17 128 22 115 13 -6
-4 -15 -21 -18 -36 -9 -33 9 -36 40 -7 19 18 26 19 49 9 19 -9 23 -15 14 -21
-7 -4 102 -8 242 -8 194 0 273 4 330 16 41 8 110 19 153 22 l79 7 -22 27 c-24
31 -20 74 6 64 9 -3 32 2 52 13 43 21 95 13 112 -19 9 -17 12 -18 38 -4 34 18
101 18 127 0 11 -7 32 -16 47 -19 21 -6 30 -17 43 -57 l17 -50 101 1 c56 0 95
3 87 6 -23 9 -70 55 -70 70 0 9 -8 11 -24 7 -21 -5 -24 -3 -19 14 3 12 11 23
19 26 22 9 76 -29 110 -76 l31 -43 149 -3 c82 -2 167 0 189 3 37 5 42 10 63
54 12 27 22 53 22 58 0 6 9 18 20 28 11 10 20 22 20 27 0 18 -20 6 -64 -40
-38 -39 -48 -44 -56 -32 -15 24 -12 37 19 72 25 30 47 98 31 98 -9 0 -46 -41
-59 -68 -6 -12 -16 -22 -21 -22 -17 0 -11 40 10 79 26 46 17 116 -15 116 -12
0 -20 -7 -20 -17 0 -24 -52 -61 -77 -55 -14 4 -22 0 -25 -12 -5 -21 -77 -35
-119 -25 -34 9 -30 -6 16 -51 39 -38 52 -77 29 -91 -16 -10 -50 29 -54 61 -1
16 -10 34 -19 40 -9 7 -16 19 -16 28 0 22 -82 33 -137 18 -50 -13 -123 -15
-123 -3 0 8 28 24 93 54 15 7 27 16 27 20 0 4 -16 19 -35 34 -19 14 -35 35
-35 46 0 23 29 36 40 18 13 -20 43 14 35 40 -5 14 8 35 52 82 32 35 69 79 81
100 12 20 30 39 38 42 13 5 15 15 10 44 -17 102 -18 132 -7 132 6 0 11 17 11
40 0 31 -4 40 -17 40 -33 0 -179 -33 -206 -47 -33 -17 -103 -120 -117 -174
-11 -40 -51 -79 -80 -79 -9 0 -34 12 -55 26 -37 24 -40 25 -74 11 -86 -36
-125 -28 -209 43 -45 38 -82 52 -82 31 0 -23 14 -41 30 -41 22 0 36 -18 32
-42 -2 -12 3 -18 15 -18 17 -1 17 -1 0 -11 -11 -6 -31 -9 -46 -6 -18 4 -38 -1
-57 -14 -16 -10 -46 -19 -67 -19 -75 0 -126 46 -149 136 -7 27 -28 69 -47 94
-19 25 -43 65 -54 90 -10 25 -32 72 -48 106 -16 33 -29 70 -29 82 0 13 -6 22
-15 22 -16 0 -65 -46 -65 -61 0 -5 -5 -9 -11 -9 -6 0 -9 7 -5 15 7 19 6 19
-33 -1 -26 -13 -30 -20 -25 -37 6 -18 5 -20 -8 -10 -11 10 -17 10 -28 0 -12
-10 -12 -9 -1 5 10 14 8 29 -13 88 -31 85 -31 89 -7 59 16 -20 23 -22 38 -13
10 6 20 20 22 30 2 10 10 23 18 28 13 7 13 10 2 18 -10 6 -7 7 10 3 19 -6 23
-4 18 8 -3 9 0 21 8 27 7 6 11 20 8 30 -3 11 -2 28 3 37 6 14 9 11 14 -17 4
-22 1 -46 -8 -63 -7 -16 -12 -40 -10 -55 4 -24 5 -25 12 -7 4 11 12 28 17 37
5 10 9 43 9 73 l0 55 785 0 785 0 -27 -30 c-14 -16 -34 -30 -43 -30 -9 0 -28
-10 -42 -23 -25 -24 -43 -67 -27 -67 5 0 9 -13 9 -29 0 -18 6 -31 18 -36 15
-6 13 -10 -13 -31 -26 -21 -27 -24 -10 -24 11 0 31 8 44 17 14 9 21 11 17 5
-13 -22 6 -12 50 24 24 19 44 42 44 50 0 8 10 14 22 14 12 0 18 3 15 7 -4 3 0
18 10 32 l16 26 -23 -20 c-15 -13 -21 -15 -16 -5 3 8 9 23 12 33 4 9 10 17 15
17 5 0 8 3 7 8 -4 21 23 62 42 62 17 0 19 -4 14 -25 -9 -36 -10 -105 -1 -96 4
4 16 31 26 61 14 39 25 54 40 57 12 1 21 2 21 0 -1 -5 -80 -237 -98 -284 -19
-50 -49 -94 -114 -171 -15 -18 -28 -37 -28 -41 0 -5 20 -17 45 -28 25 -10 45
-24 45 -30 0 -7 8 -13 18 -13 14 0 22 -16 37 -77 10 -43 23 -87 29 -98 14 -27
18 -45 17 -76 -1 -36 26 -45 48 -18 17 21 18 21 44 5 25 -17 27 -17 50 1 19
14 24 26 22 51 -2 29 6 39 74 100 42 37 91 82 110 100 23 22 38 29 45 22 6 -6
9 -82 8 -194 l-2 -184 35 -42 c19 -23 35 -45 35 -50 0 -4 14 -24 30 -45 27
-34 30 -45 30 -112 0 -54 -6 -88 -21 -124 -12 -27 -19 -52 -16 -55 3 -3 39 -5
80 -6 78 0 117 12 117 37 0 20 14 19 31 -1 7 -9 22 -14 36 -11 19 3 23 0 23
-19 0 -15 6 -24 15 -24 14 0 15 72 13 658 -3 680 -3 678 -42 718 -41 40 3 39
-1471 41 -1169 2 -1416 0 -1448 -11z m2610 -22 c-12 -13 50 -54 82 -54 11 0
24 8 30 17 8 14 12 15 25 4 9 -7 16 -25 16 -39 0 -14 5 -40 12 -58 14 -40 2
-59 -42 -68 -36 -7 -41 -36 -6 -36 34 0 43 -16 51 -92 8 -81 26 -90 55 -26 16
37 20 40 26 23 5 -11 8 -40 9 -64 0 -41 -2 -45 -30 -53 -16 -4 -71 -10 -122
-12 -72 -4 -93 -1 -97 9 -7 18 42 174 62 197 19 22 9 48 -16 42 -14 -4 -21 3
-32 36 -8 23 -20 44 -27 47 -7 3 -13 21 -13 42 -1 29 -3 33 -11 19 -19 -33
-39 -21 -39 21 0 29 -5 41 -17 44 -10 3 6 5 36 6 30 0 52 -2 48 -5z m198 -844
c4 -7 12 -7 18 -2 7 5 33 9 60 10 l47 2 0 -57 0 -56 -23 21 c-31 29 -37 28
-37 -7 0 -47 -19 -54 -117 -47 -131 10 -145 14 -141 39 2 18 12 23 48 27 48 6
83 25 106 59 17 23 29 27 39 11z m-1128 -386 c16 -19 38 -47 51 -60 24 -28 28
-54 10 -72 -20 -20 -32 -14 -58 28 -13 22 -30 40 -37 40 -22 0 -63 50 -63 76
0 28 28 46 52 33 10 -5 30 -25 45 -45z"/>
<path d="M6939 633 c-1 -4 -1 -11 0 -15 0 -4 -5 -5 -13 -2 -16 6 -46 -21 -46
-42 0 -45 143 -121 170 -89 7 8 2 19 -16 36 -14 13 -35 37 -46 52 l-20 28 38
-16 c74 -32 154 -51 154 -37 -1 21 -24 34 -101 57 -46 14 -92 28 -101 31 -10
3 -19 2 -19 -3z"/>
</g>
</svg>
